<?xml version="1.0" encoding="utf-8"?>
<!-- Generator: Adobe Illustrator 21.0.0, SVG Export Plug-In . SVG Version: 6.00 Build 0)  -->
<svg version="1.1" id="Layer_1" xmlns="http://www.w3.org/2000/svg" xmlns:xlink="http://www.w3.org/1999/xlink" x="0px" y="0px"
	 viewBox="0 0 396 213" style="enable-background:new 0 0 396 213;" xml:space="preserve">
<style type="text/css">
	.st0{fill:#FFFFFF;}
</style>
<g>
	<path class="st0" d="M141,10c0,34.8,0,69.4,0,104c-6.4,0-12.6,0-19,0c0-21.2,0-63.6,0-63.6s-2.7,3.1-3.7,4.6c-1.1,1.6-2,3.3-3,4.9
		c-1,1.6-1.9,3.1-2.9,4.7c-1,1.6-2,3.3-3,4.9c-1,1.6-1.9,3.1-2.9,4.7c-1,1.6-2,3.3-3,4.9c-1,1.6-1.9,3.1-2.9,4.7
		c-1,1.6-1.9,3.1-2.9,4.7c-1,1.6-2,3.3-3,4.9c-1,1.6-1.9,3.1-2.9,4.7c-1,1.6-2,3.3-3,4.9c-1,1.6-1.9,3.1-2.9,4.7c-1,1.6-2,3.3-3,4.9
		c-1,1.6-1.9,3.1-3,4.5H153V10.5c0.9-0.1,1.7-0.1,2.5-0.1c15.2,0,30.4-0.2,45.6,0c25.3,0.4,44.7,11.4,56.5,33.8
		c12.1,23,9.8,45.7-5,67c-1.1,1.5-2.3,2.1-4.2,2.1c-6.1-0.1-18.2-0.3-18.2-0.3s-3.1,0-4.1,0c0.3-0.5,0.4-0.7,0.5-0.9
		c9.1-7.8,14-18.1,16.2-29.8c2.4-13,0.1-25-7.9-35.6c-8.4-11.2-19.6-17-33.5-17.3c-9.1-0.2-18.3,0-27.4,0c-0.6,0-1.2,0.1-2,0.1
		c0,29.2,0,58.3,0,87.7c3.9,0.1,7.9,0,12,0c0-28.2,0-83.9,0-83.9s13.1-0.1,19.6-0.1c0.2,5.7,0.1,11.3,0.1,16.8
		c0,5.6,0,11.2,0.3,16.8v16.6v16.8v16.9c0.7,0.1,1.4,0.2,2.1,0.2c15.2,0,30.4,0,45.6,0c10.8,0,20.6-3.2,28.7-10.3
		c13.6-12,18.7-27.1,14.1-44.6c-4.6-17.6-16.6-28.1-34.4-32c-1.9-0.4-3.8-0.4-5.7-0.7c-0.7-0.1-1.6-0.4-2.1-0.9
		c-7.2-7.6-15.5-13.6-25.1-17.7c-0.2-0.1-0.3-0.3-0.7-0.6c0.6-0.1,1-0.2,1.3-0.2c9.3,0,18.6-0.2,27.8,0.2
		c26.5,1.2,49.4,19.3,57,44.7c10.9,36.3-12.2,73.9-49.5,80.5c-3.8,0.7-7.8,0.9-11.7,1c-14.9,0.1-44.6-0.7-44.6-0.7H204v63.7
		c-0.9,0.1-1.3,0.2-1.6,0.2c-5.4,0-10.9,0-16.3,0c-1.1,0-1.9-0.4-2.7-1.2c-2.8-2.8-5.7-5.6-8.7-8.5c-0.4,0.6-0.8,1.1-1.1,1.6
		c-1.1,1.5-2.1,3-3.4,4.3c-4.2,4.2-10.7,5-15.9,2c-5.4-3.1-8.1-9-6.6-14.9c0.8-3.4,2.9-5.8,5.7-7.7c1.2-0.8,2.4-1.5,3.8-2.3
		c-0.7-0.9-1.5-1.7-2.1-2.5c-3.1-3.9-3.4-8.4-0.9-12c2.7-3.8,7.9-5.5,12.4-3.9c4.4,1.5,7.3,5.7,7,10.3c-0.1,2.8-1.4,4.9-3.5,6.6
		c-1.4,1.1-3,2-4.4,2.9c2.4,2.4,4.9,4.8,7.4,7.3c0.2-0.3,0.5-0.8,0.8-1.4c3.3-6.1,6.6-12.3,9.8-18.4c0.5-0.9,0.8-1.9,0.8-2.9
		c0.1-7,0-13.9,0-20.9c0-0.4-0.1-0.8-0.1-1.2H172c0,0,0,10.4,0,16.2c-3.2-2.1-6.3-3.1-9.7-3c-3.4,0.1-6.3,1.4-9.3,3.5
		c-0.3-5.8,0.1-11.2-0.2-16.8c-4,0-7.8,0-11.9,0c0,21.3,0,42.6,0,64c-6.4,0-12.4,0-19,0c0-3.5,0-7.1,0-10.7c0-3.5,0-7.1,0-10.6
		c0-3.6,0-7.2,0-10.8c0-3.5,0-7.1,0-10.6c0-3.6,0-7.2,0-10.8c0-3.5,0-7,0-10.7c-0.7-0.1-1.2-0.3-1.7-0.3c-16.8,0-33.5,0-50.3-0.1
		c-1.6,0-2.2,0.9-2.9,2c-12.3,20-24.7,40.1-37,60.1c-0.3,0.5-0.6,1.2-1,1.6c-0.4,0.4-1,0.9-1.5,0.9c-6.1,0.1-12.3,0-18.8,0
		c0.6-1.1,1-1.8,1.4-2.5C33.2,159.7,56.3,120.8,79.3,82c13.8-23.2,27.5-46.4,41.2-69.6c1-1.7,2.1-2.5,4.1-2.4
		c4.5,0.2,9.1,0.1,13.7,0.1C139.2,10,140,10,141,10z M160.6,178.5c-2.1,0.5-3.9,1.8-5.3,3.4c-2.5,2.9-2.3,6.9,0.4,9.6
		c2.7,2.7,6.8,2.9,9.8,0.4c1.6-1.4,2.8-3.2,3.3-4.8C165.9,184.1,163.3,181.4,160.6,178.5z M163,159.5c-1.9,0-3.7,1-4.5,2.6
		c-0.9,1.7-0.5,3.4,0.5,4.9c2.2,3.4,4.2,3.7,7.3,1c1.7-1.4,2.3-3.5,1.6-5.4C167.1,160.8,165.2,159.5,163,159.5z M184,191.5v-18.1
		c-0.2,0-0.2,0-0.4-0.1c-2.1,4-4.2,8-6.3,12.1C179.5,187.5,181.6,189.4,184,191.5z"/>
	<path class="st0" d="M311,165c0,3.5,0,6.6,0,9.8c-2,0.5-3.9,0.3-6,0.2c0-8.6,0-17,0-25.4c0.2-0.1,0.3-0.3,0.4-0.3
		c5,0,10-0.2,14.9,0c5.7,0.3,9,4.9,7.1,9.8c-0.6,1.5-2,2.6-3.1,4c2.5,1.3,3.1,3.8,3.2,6.6c0.1,1.7,0.4,3.5,0.6,5.3
		c-1.8,0-3.7,0-5.7,0c-0.2-1.2-0.4-2.3-0.6-3.3c-0.1-0.8-0.1-1.6-0.2-2.4c-0.5-3.3-1.7-4.2-5.3-4.2C314.7,165,313,165,311,165z
		 M311,160.9c2.8-0.1,5.3-0.1,7.7-0.4c1.7-0.2,2.5-1.7,2.4-3.6c-0.1-1.8-0.9-3-2.6-3.2c-2.4-0.3-4.9-0.3-7.5,0c0,1.6,0,3.1,0,4.6
		C311,159.1,311,159.8,311,160.9z"/>
	<path class="st0" d="M293.4,149c3.2,8.6,6.4,17.2,9.7,26c-2.1,0-4.3,0-6.1,0c-0.6-1.6-1.2-3.3-1.8-5c-2.8,0-6.5,0-9.6,0
		c-0.6,1.5-1.2,3.2-1.9,5c-1.6,0-3.8,0-5.9,0c3.3-8.8,6.6-17.4,9.9-26C289.7,149,291.4,149,293.4,149z M293.4,165
		c-0.7-3.6-2.2-7.3-3.3-8.6c-1,2.8-2,5.6-3,8.6C289.4,165,291.3,165,293.4,165z"/>
	<path class="st0" d="M259.3,177.8c0.1,0.5,0.1,0.9,0.1,1.2c0,0.5-0.1,1.1-0.1,1.6c-1,0.3-2,0.5-2.9,1c-0.3,0.2-0.4,2.3-0.4,2.3
		s4.1,0,6,0c0-1.5,0-2.9,0-4.6c1.4-0.1,2.6-0.1,4-0.2c0.1,1.6,0.2,3.1,0.3,4.7c0.9,0.1,1.8,0.3,2.7,0.4c0,0.9,0,2.2,0,2.2
		s-1.1,0.2-2.3,0.3c0,2.7,0,5.4,0,8.1c0,0.9,0.6,1.4,1.5,1.5c0.5,0,0.9,0.1,1.7,0.1v3.3c-0.9,0.1-1.7,0.2-2.4,0.2
		c-4.1-0.1-5.6-1.1-5.4-5.4c0.1-2.5,0-5.1,0-7.7h-6.1c-0.2,4-0.1,13-0.1,13h-4v-13.1c-1.3-0.1-2-0.2-3-0.3v-2.6
		c0.9-0.1,1.6-0.3,2.5-0.5c0.2-1.9,0.2-3.9,2.1-5.1C255.4,177.3,257.2,177.5,259.3,177.8z"/>
	<path class="st0" d="M282.4,185.1c4-2.6,6.5-2.5,9.4,0.5c1.6-1.5,3.4-2.6,5.7-2.3c3.1,0.3,4.9,2,5,5.1c0.1,3.7,0,10.6,0,10.6h-4.2
		c0,0-0.1-0.7-0.1-1.4c0-2.6,0-5.3-0.1-7.9c-0.1-2.1-1-3-2.7-2.9c-1.6,0-2.7,1-2.8,2.9c-0.1,2.1-0.1,4.2-0.1,6.2c0,1.2,0,4.1,0,4.1
		H288c0,0,0-3,0-4.4c0-2.2,0-4.3-0.1-6.5c-0.1-1.2-0.6-2.1-2-2.3c-1.2-0.2-2.5,0.3-3,1.4c-0.3,0.8-0.5,1.7-0.5,2.5
		c-0.1,2.8-0.1,5.6-0.1,8.4c0,0.1-0.2,0.8-0.2,0.8h-3.8c0,0-0.6-13-0.2-15.9C281,183.4,281.5,183.5,282.4,185.1z"/>
	<path class="st0" d="M223.8,200.8c1.1,0,2.1-0.1,3.2,0c0.4,0,1,0.2,1.2,0.5c1.2,1.7,2.8,2.1,4.6,1.4c1.9-0.7,2.1-2.4,2.1-4.2
		c0-0.2-0.1-0.5-0.1-0.9c-0.6,0.4-1.1,0.7-1.6,1c-3.9,2.2-8.5,0.2-9.7-4.1c-0.6-2.2-0.6-4.4,0.2-6.6c1.6-4.5,6.4-5.9,10.3-3.2
		c0.2,0.1,0.4,0.2,0.6,0.4c0.9-2.3,2.7-1.1,4.1-1.2c0.2,0.2,0.3,0.4,0.3,0.5c0,5,0.2,9.9,0,14.9c-0.1,3.8-2,5.8-5.8,6.6
		c-2.3,0.5-4.6,0.4-6.8-0.7C224.9,204.2,223.6,203.1,223.8,200.8z M227.4,191c0.1,0.9,0.1,1.5,0.2,2c0.4,1.9,1.5,2.9,3.2,3
		c1.7,0.1,3-0.8,3.6-2.5c0.6-1.7,0.4-3.3-0.3-4.9c-0.6-1.3-1.7-1.9-3.1-1.9c-1.4,0-2.5,0.6-3.1,1.9
		C227.7,189.4,227.6,190.4,227.4,191z"/>
	<path class="st0" d="M379.6,185c0.9-2.2,2.7-1,4.4-1.2c0.1,0.7,0.2,1.3,0.2,1.9c0,3.9,0,7.8,0,11.8c0,6.8-4.6,10.1-11.2,8.1
		c-1.6-0.5-2.9-1.3-3.7-2.8c-0.3-0.5-0.3-1.2-0.5-1.8c0.5-0.1,0.9-0.2,1.2-0.2c1,0,1.9,0,2.8,0c1.8,2.2,3.4,2.7,5.2,1.9
		c1.6-0.7,2.1-2.1,1.9-4.7c-1.6,0.4-3.2,1.2-4.9,1.3c-3.1,0.2-5.3-1.5-6.3-4.5c-0.7-2.2-0.7-4.4,0-6.6c1.6-4.8,6.4-6.3,10.5-3.3
		C379.2,184.9,379.4,184.9,379.6,185z M372.4,191.2c0.2,1,0.4,2,0.8,3c0.6,1.4,1.8,2,3.3,1.8c1.9-0.2,3.2-1.7,3.4-4
		c0.2-2.8-0.8-4.8-2.8-5.2c-0.2,0-0.3-0.1-0.5-0.1C374.1,186.4,372.6,188.1,372.4,191.2z"/>
	<path class="st0" d="M337,154c-2.8,0-5.5,0-8,0c0-1.8,0-3.3,0-5c7,0,13.9,0,21,0c0,1.5,0,3.3,0,5c-2.3,0-4.7,0-7.4,0
		c-0.4,7.2,0.1,14-0.2,21c-1.9,0-3.4,0-5.4,0C337,168.1,337,161.2,337,154z"/>
	<path class="st0" d="M235,153c1.3,0,2.5,0,4,0c0,2.5,0,7.5,0,7.5s1.2-1,1.7-1.3c3.9-2.5,8.5-0.5,8.9,4.1c0.3,3.7,0.1,7.5,0.1,10.6
		h-4.4c0-1.6,0-3.8,0-6c0-1.3,0-2.6-0.2-3.8c-0.2-1.6-1-2.3-2.5-2.3c-1.6-0.1-2.8,0.6-3.2,2c-0.3,1.1-0.4,2.4-0.4,3.6
		c-0.1,2.4,0,7.6,0,7.6s-2.5,0-3.9,0C235,167.7,235,160.5,235,153z"/>
	<path class="st0" d="M338.9,184.4c-2,2-3.6,3.7-5.4,5.5c1.1,1.8,2.1,3.4,3.1,5.1c1,1.6,1.9,3.2,3.1,5c-1.8,0-3.3,0-5,0
		c-1.3-2.1-2.6-4.4-4-6.7c-1.4,0.6-1.8,1.5-1.7,2.8c0.1,1.3,0,2.5,0,3.9c-1.5,0-2.7,0-4.1,0c0-7.3,0-14.6,0-22
		c0.7-0.1,1.4-0.1,2-0.1c0.6,0,1.2,0.1,2,0.1c0,3.7,0,7.4,0,11.5c1.5-1.2,2.4-2.4,3.3-3.4C334.6,183.7,335.1,183.6,338.9,184.4z"/>
	<path class="st0" d="M310.1,189c-1.5,0-2.7,0-4,0c0-2.4,1.3-3.7,3.1-4.5c2.8-1.1,5.6-1.1,8.5-0.2c2.1,0.6,3,2.2,3,4.4
		c0,3.7,0,7.5,0,11.2c-2.6,0.6-3.2,0.5-4.5-0.7c-1.9,1.1-4,1.7-6.3,1.4c-2.9-0.4-4.5-2.2-4.3-5.1c0.1-2.1,1-3.4,3.1-4
		c1.6-0.5,3.3-0.7,4.9-0.9c2-0.3,2.7-0.9,2.6-2.1c-0.1-1.3-1.3-1.9-3.2-1.8C311.5,186.9,311.3,187.1,310.1,189z M316.1,192.2
		c-1.8,0.4-3.3,0.5-4.7,1c-1.7,0.6-2.1,2.6-0.8,3.6c1.8,1.4,4.9,0.3,5.4-1.9C316.1,194.1,316,193.3,316.1,192.2z"/>
	<path class="st0" d="M268.2,168c-3.7,0-7.4,0-11.2,0c-0.3,1.8,0.3,2.9,1.6,3.6c1.4,0.7,2.9,0.7,4.3-0.2c2.2-1.5,2.2-1.5,4.8-1.2
		c-0.9,3.9-4.5,5.9-9.1,5.1c-4.4-0.8-7.1-5.1-6.3-9.8c0.8-4.8,4.6-7.6,9.5-6.9C266,159.1,268.8,163.1,268.2,168z M257,165
		c1.1,0,2.2,0,3.3,0c1.1,0,2.2,0,3.3,0c-0.4-2.6-1.2-3.4-3.3-3.4C258.2,161.6,257.2,162.6,257,165z"/>
	<path class="st0" d="M367.6,158.4c5.1,0,8.3,3.3,8.4,8.4c0,5.2-3.3,8.6-8.5,8.6c-5,0-8.3-3.4-8.3-8.5
		C359.3,161.7,362.5,158.4,367.6,158.4z M371.7,166.8c-0.3-1-0.4-2.1-0.8-3c-0.6-1.5-1.8-2.1-3.4-2.1c-1.5,0-2.6,0.7-3.2,2.1
		c-0.8,2-0.8,4.1,0,6.1c0.6,1.4,1.7,2.1,3.2,2.1c1.6,0,2.8-0.6,3.4-2.1C371.3,168.9,371.5,167.9,371.7,166.8z"/>
	<path class="st0" d="M365,199h-4.1c-0.1,0.1-0.2-0.5-0.2-1.1c0-2.6,0-5.3-0.1-7.9c-0.1-2.1-0.9-3-2.5-3.2c-1.9-0.2-3.1,0.7-3.5,2.8
		c-0.2,1.2-0.2,2.4-0.2,3.6c0,2.1,0,4.3,0,6.8H350v-15.9c3.2-0.8,3.8-0.7,4.6,1.1c1.7-1.4,3.5-2.2,5.7-1.9c2.8,0.3,4.6,1.6,4.7,4.4
		C365.2,191.7,365,195.6,365,199z"/>
	<path class="st0" d="M384,175c0,0-4.1,0-4,0v-13c-1-0.1-3-0.4-3-0.4s0-1.7,0-2.6c0.8-0.2,1.6-0.3,2.3-0.4c0.7-5.1,2.4-6.4,7.7-5.6
		c0,0.9,0,2.9,0,2.9s-2.5,0.5-2.6,2.7c0.9,0.1,3.6,0.4,3.6,0.4v2.7c0,0-2.6,0.2-4,0.3V175z"/>
	<path class="st0" d="M229,154c0,1.6,0,2.9,0,4.4c1,0.2,2,0.3,3,0.5c0,0.9,0,2.7,0,2.7s-1.7,0.2-2.9,0.4c0,2.7,0,5.3,0,7.9
		c0,1.1,0.6,1.6,1.6,1.6c0.5,0,2.2,0.1,2.2,0.1s0,1.9,0,3c-2.1,0.8-4.2,0.5-6.2-0.2c-1.4-0.5-2-1.7-2-3c0-1.1,0-2.2,0-3.4
		c0-2.4,0-4,0-6.1c-1-0.1-1.8-0.3-2.8-0.4v-2.6c0.9-0.1,1.7-0.3,2.7-0.4c0.1-1.5,0.2-2.9,0.2-4.5C226.4,154,227.5,154,229,154z"/>
	<path class="st0" d="M247,200c-1.5,0-2.7,0-4,0c0-5.4,0-10.6,0-16c1.4,0,2.6,0,4,0C247,189.4,247,194.7,247,200z"/>
	<path class="st0" d="M346,184c0,5.3,0,10.6,0,16c-1.4,0-2.7,0-4,0c-0.5-1.7-0.6-13.3-0.1-16C343.2,184,344.5,184,346,184z"/>
	<path class="st0" d="M342,181c0-1.1,0-1.9,0-3c1.3,0,2.6,0,4,0c0,1,0,1.9,0,3C344.7,181,343.5,181,342,181z"/>
	<path class="st0" d="M243,181c0-1.1,0-1.9,0-3c1.3,0,2.6,0,4,0c0,1,0,1.9,0,3C245.7,181,244.5,181,243,181z"/>
</g>
</svg>
