<?xml version="1.0" encoding="utf-8"?>
<!-- Generator: Adobe Illustrator 19.0.0, SVG Export Plug-In . SVG Version: 6.00 Build 0)  -->
<svg version="1.1" id="Layer_1" xmlns="http://www.w3.org/2000/svg" xmlns:xlink="http://www.w3.org/1999/xlink" x="0px" y="0px"
	 viewBox="-437 261 39.8 39.8" style="enable-background:new -437 261 39.8 39.8;" xml:space="preserve">
<style type="text/css">
	.st0{fill:#FFFFFF;}
</style>
<g>
	<path class="st0" d="M-417.1,284.8c2.2,0,4-1.8,4-4c0-0.9-0.3-1.7-0.8-2.3c-0.7-1-1.9-1.7-3.2-1.7c-1.3,0-2.5,0.7-3.2,1.7
		c-0.5,0.7-0.8,1.5-0.8,2.3C-421.1,283.1-419.3,284.8-417.1,284.8L-417.1,284.8z"/>
	<path class="st0" d="M-408.5,276v-3.8h-0.5h-3.3v3.8H-408.5z"/>
	<path class="st0" d="M-417.1,261c-11,0-19.9,8.9-19.9,19.9s8.9,19.9,19.9,19.9s19.9-8.9,19.9-19.9
		C-397.3,269.9-406.2,261-417.1,261L-417.1,261z M-405.8,278.5v9.2c0,2.4-2,4.4-4.4,4.4h-13.9c-2.4,0-4.4-2-4.4-4.4v-13.8
		c0-2.4,2-4.4,4.4-4.4h13.9c2.4,0,4.4,2,4.4,4.4V278.5z"/>
	<path class="st0" d="M-411,280.9c0,3.4-2.8,6.2-6.2,6.2c-3.4,0-6.2-2.8-6.2-6.2c0-0.8,0.2-1.6,0.5-2.3h-3.4v9.2
		c0,1.2,1,2.2,2.2,2.2h13.9c1.2,0,2.2-1,2.2-2.2v-9.2h-3.4C-411.1,279.3-411,280-411,280.9L-411,280.9z"/>
</g>
</svg>
