<?xml version="1.0" encoding="utf-8"?>
<!-- Generator: Adobe Illustrator 19.0.0, SVG Export Plug-In . SVG Version: 6.00 Build 0)  -->
<svg version="1.1" id="Layer_1" xmlns="http://www.w3.org/2000/svg" xmlns:xlink="http://www.w3.org/1999/xlink" x="0px" y="0px"
	 viewBox="0 0 468.7 468.7" style="enable-background:new 0 0 468.7 468.7;" xml:space="preserve">
<style type="text/css">
	.st0{fill:#FFA64D;}
	.st1{fill:#333333;}
	.st2{fill:none;stroke:#333333;stroke-width:17;stroke-miterlimit:10;}
</style>
<g>
	<path class="st0" d="M420.9,269.8l-16.9-55c-2-6.3-7.8-10.7-14.4-10.7h-34.3l-90.7-90.7V79.2c0-6.6-4.3-12.5-10.7-14.4l-55-16.9
		c-6.4-2-12.9-3.6-19.5-5l2.7,5.8L202,88.6c2.7,5.4,7.4,9.5,13.1,11.4l11.6,3.9v33.6c0,6.1,2.4,11.8,6.6,16l81.8,81.8
		c4.3,4.3,10,6.6,16,6.6h33.6l3.9,11.6c1.9,5.7,6,10.4,11.4,13.1l39.8,19.9l5.6,1.6C424.3,281.9,422.7,275.8,420.9,269.8
		L420.9,269.8z"/>
	<path class="st1" d="M438.5,393.9v-57.4c0-23.4-3.5-46.6-10.4-68.9l-16.9-55c-2.9-9.6-11.7-16-21.7-16h-31.1l-37.8-37.8l55.1-55.1
		L365,93l-55.1,55.1l-37.8-37.8V79.2c0-10-6.4-18.7-16-21.7l-55-16.9c-22.4-6.9-45.5-10.4-68.9-10.4H74.8C71.3,13,56,0,37.8,0
		C17,0,0,17,0,37.8s17,37.8,37.8,37.8c18.2,0,33.5-13,37-30.2h57.4c21.9,0,43.6,3.3,64.5,9.7l55,16.9c3.2,1,5.3,3.9,5.3,7.2v37.3
		l42.2,42.2l-4.4,4.4l-2.2-2.2l-10.7,10.7l2.2,2.2L75.6,382.3c-4.6-2.8-9.9-4.4-15.6-4.4c-6.1,0-12,1.8-17.1,5.2L10.1,405
		C3.8,409.2,0,416.3,0,423.9V446c0,12.5,10.2,22.7,22.7,22.7h22.1c7.6,0,14.6-3.8,18.9-10.1l21.9-32.8c3.4-5.1,5.2-11,5.2-17.1
		c0-5.7-1.7-11-4.4-15.7l208.5-208.5l2.2,2.2l10.7-10.7l-2.2-2.2l4.4-4.4l42.2,42.2h37.3c3.3,0,6.2,2.1,7.2,5.3l16.9,55
		c6.4,20.9,9.7,42.6,9.7,64.5v57.4c-17.2,3.5-30.2,18.8-30.2,37c0,20.8,17,37.8,37.8,37.8s37.8-17,37.8-37.8
		C468.7,412.6,455.7,397.4,438.5,393.9L438.5,393.9z M45.4,59.1v-6.2H30.3v6.2c-6.4-2.3-11.4-7.3-13.7-13.7h6.2V30.3h-6.2
		c2.3-6.4,7.3-11.4,13.7-13.7v6.2h15.1v-6.3c6.4,2.3,11.4,7.3,13.7,13.7h-6.2v15.1h6.2C56.8,51.8,51.8,56.8,45.4,59.1L45.4,59.1z
		 M75.6,408.7c0,3.1-0.9,6.1-2.6,8.7l-21.9,32.8c-1.4,2.1-3.8,3.4-6.3,3.4H22.7c-4.2,0-7.6-3.4-7.6-7.6v-22.1c0-2.5,1.3-4.9,3.4-6.3
		l32.8-21.9c2.6-1.7,5.6-2.6,8.7-2.6c1.5,0,2.9,0.3,4.3,0.7l-16.7,16.7l10.7,10.7L75,404.5C75.4,405.8,75.6,407.2,75.6,408.7
		L75.6,408.7z M438.5,452.2V446h-15.1v6.2c-6.4-2.3-11.4-7.3-13.7-13.7h6.2v-15.1h-6.2c2.3-6.4,7.3-11.4,13.7-13.7v6.2h15.1v-6.2
		c6.4,2.3,11.4,7.3,13.7,13.7H446v15.1h6.2C449.9,444.8,444.9,449.9,438.5,452.2L438.5,452.2z"/>
	<path class="st1" d="M304.6,194.3l10.7-10.7l15.1,15.1l-10.7,10.7L304.6,194.3z"/>
	<path class="st1" d="M259.3,149l10.7-10.7l15.1,15.1l-10.7,10.7L259.3,149z"/>
	<path class="st1" d="M24.9,433.1L40,418l10.7,10.7l-15.1,15.1L24.9,433.1z"/>
	<path class="st0" d="M404.9,105.8h-42.1V63.7l38.6-23.2c3-1.8,6.5-2.8,10-2.8c10.7,0,19.4,8.7,19.4,19.4c0,3.5-1,7-2.8,10
		L404.9,105.8z"/>
</g>
<line class="st2" x1="50.7" y1="59.1" x2="404.9" y2="418"/>
</svg>
