<?xml version="1.0" encoding="utf-8"?>
<!-- Generator: Adobe Illustrator 21.0.0, SVG Export Plug-In . SVG Version: 6.00 Build 0)  -->
<svg version="1.1" id="Layer_1" xmlns="http://www.w3.org/2000/svg" xmlns:xlink="http://www.w3.org/1999/xlink" x="0px" y="0px"
	 viewBox="0 0 1000 669.4" style="enable-background:new 0 0 1000 669.4;" xml:space="preserve">
<style type="text/css">
	.st0{fill:#ED2F48;}
	.st1{fill:#31BBAC;}
</style>
<g>
	<g>
		<g>
			<g>
				<path class="st0" d="M146.9,331.9c0-4.1-3.3-7.5-7.5-7.5l0,0H29.2c-6.1,0-12.1-4.9-12.1-12v-79.9l0,0v0c0-4.3-3.5-7.9-7.9-7.9
					c-4.4,0-7.9,3.5-7.9,7.9v0v99.5v99.4l0,0c0,4.4,3.5,7.9,7.9,7.9c4.4,0,7.9-3.5,7.9-7.9l0,0l0,0v-79.9c0-7.2,5.9-12.1,12.1-12.1
					h110.2l0,0C143.5,339.4,146.9,336,146.9,331.9z"/>
			</g>
			<g>
				<path class="st0" d="M179,232.5c0-4.2-3.4-7.7-7.7-7.7c-4.2,0-7.7,3.4-7.7,7.7l0,0v99.5v99.4l0,0c0,4.2,3.4,7.7,7.7,7.7
					c4.2,0,7.7-3.4,7.7-7.7l0,0v-99.4V232.5L179,232.5z"/>
			</g>
			<g>
				<path class="st0" d="M830.1,331.9c0-4.2-3.4-7.7-7.7-7.7l0,0h-24.8h-19.3h-14.6l0,0l0,0c-4.2,0-7.7,3.4-7.7,7.7
					c0,4.2,3.4,7.7,7.7,7.7l0,0l0,0h14.6h19.3h24.8l0,0C826.6,339.6,830.1,336.1,830.1,331.9z"/>
			</g>
			<g>
				<path class="st0" d="M647.6,263.7L647.6,263.7c0-4.2-3.4-7.7-7.7-7.7c-4.2,0-7.7,3.4-7.7,7.7l0,0v68.5v31v68.5l0,0
					c0,4.2,3.4,7.7,7.7,7.7c4.2,0,7.7-3.4,7.7-7.7l0,0v-99.4l0,0V263.7z"/>
			</g>
			<g>
				<path class="st0" d="M364,232.5c0-4.3-3.5-7.8-7.8-7.8c-4.3,0-7.8,3.5-7.8,7.8h0v158.5c0,3.3-1,6.9-3,10.7
					c-2.1,4-4.9,7.7-8.2,11c-3.3,3.3-7.2,6.2-11.4,8.4c-4.1,2.2-8.1,3.3-11.9,3.3h-69.6c-3.6,0-7.4-1-11.4-3.1
					c-4.1-2.1-8.1-4.9-11.6-8.2c-3.5-3.5-6.4-7.3-8.4-11.2c-2-3.8-3.1-7.5-3.1-10.9V232.5c0,0,0,0,0,0c0-4.3-3.5-7.8-7.8-7.8
					c-4.3,0-7.8,3.5-7.8,7.8c0,0,0,0,0,0v163.8c0,0.6,0,1.3,0.3,1.9c0.7,4.5,2.4,9.1,5.2,13.6c2.8,4.5,6.3,8.7,10.4,12.3
					c4.3,4.4,9.2,8.1,14.5,10.9c5.5,2.9,11,4.4,16.3,4.4h76.4c5.4,0,11-1.6,16.6-4.6c5.5-3,10.5-6.7,14.9-11
					c4.4-4.4,8.1-9.2,10.9-14.3c2.9-5.3,4.3-10.3,4.3-14.9L364,232.5L364,232.5z"/>
			</g>
			<g>
				<path class="st0" d="M849,424.3c-0.1,0-0.2,0-0.2,0h-84.9c-3.4,0-7.2-1-11.2-3c-4.1-2-8.1-4.7-11.6-7.9
					c-3.6-3.2-6.5-6.9-8.8-10.9c-2.2-3.9-3.4-7.8-3.4-11.6V273.1c0-3.3,1-6.9,3.1-10.7c2.1-4,4.9-7.7,8.2-11.2
					c3.3-3.4,7.2-6.3,11.4-8.5c4.1-2.2,8.3-3.3,12.3-3.3H849l0,0l0,0c4.1,0,7.5-3.3,7.5-7.5c0-4.1-3.3-7.5-7.5-7.5l0,0l0,0H760
					c-5.4,0-11,1.5-16.5,4.6c-5.4,3-10.3,6.7-14.6,11c-4.4,4.3-8,9.2-10.9,14.3c-2.9,5.3-4.5,10.3-4.5,14.9v125.1
					c0,5.3,1.6,10.6,4.8,16c3.1,5.2,6.9,9.9,11.5,14.1c4.5,4.2,9.5,7.7,14.8,10.4c5.4,2.8,10.6,4.2,15.4,4.2H849l0,0
					c4.1,0,7.5-3.3,7.5-7.5C856.5,427.7,853.1,424.3,849,424.3z"/>
			</g>
			<g>
				<path class="st0" d="M995.3,253.5c-3-5.3-6.9-10.1-11.5-14.4c-4.6-4.3-9.6-7.8-14.9-10.4c-5.5-2.7-10.6-4.1-15.4-4.1h-74.6l0,0
					c-4.1,0-7.5,3.3-7.5,7.5c0,4.1,3.3,7.5,7.5,7.5h71.2c3.4,0,7.2,1,11.2,2.9c4.2,2.1,8,4.7,11.5,7.9c3.5,3.2,6.4,6.9,8.6,10.9
					c2.2,3.9,3.3,7.8,3.3,11.7v10.4c0,3.3-1,6.9-3.1,10.7c-2.1,4-4.9,7.7-8.2,11c-3.4,3.4-7.2,6.2-11.3,8.4c-4,2.2-8,3.3-12.1,3.3
					h-55.7v0c-12.6,0-22.9,10.2-22.9,22.9l0,0v92c0,4.2,3.4,7.7,7.7,7.7c4.2,0,7.7-3.4,7.7-7.7v-92h-0.1l0,0c0-4.2,3.4-7.6,7.6-7.6
					v-0.1h59.2c5.4,0,11-1.6,16.5-4.6c5.3-2.9,10.3-6.7,14.8-11.1c4.4-4.4,8.1-9.3,10.9-14.5c2.9-5.3,4.3-10.4,4.3-15v-16.8
					C1000,264.4,998.4,258.9,995.3,253.5z"/>
			</g>
			<g>
				<path class="st0" d="M702.3,224.5L702.3,224.5h-25.1h-74.3h-20.2l0,0c-4.2,0-7.7,3.4-7.7,7.7c0,4.2,3.4,7.7,7.7,7.7l0,0h20.2
					h74.3h25.1l0,0c4.2,0,7.7-3.4,7.7-7.7C709.9,227.9,706.5,224.5,702.3,224.5z"/>
			</g>
			<g>
				<path class="st0" d="M995,426.4L995,426.4l-50.5-56.7l0,0l-22.6-25.4l0,0l0,0c-2.8-3.2-7.7-3.4-10.8-0.6
					c-3.2,2.8-3.4,7.7-0.6,10.8l0,0l0,0l9.8,11l63.3,71.1l0,0c2.8,3.2,7.7,3.4,10.8,0.6C997.5,434.4,997.8,429.5,995,426.4z"/>
			</g>
			<g>
				<path class="st0" d="M456.4,292.5c-13.4-22.6-25.7-43.2-33.8-56.6c-4.1-6.7-11.5-11.2-20-11.2c-12.9,0-23.4,10.5-23.4,23.4h0
					c0,0,0,0,0,0v183.3c0,4.3,3.5,7.8,7.8,7.8c4.3,0,7.8-3.5,7.8-7.8V272.1v-24c0,0,0,0,0,0h0c0-4.3,3.5-7.8,7.8-7.8
					c2.9,0,5.5,1.6,6.8,4l0,0c11.1,18.2,34.1,56.9,56.2,94.1L456.4,292.5z"/>
			</g>
		</g>
	</g>
	<g>
		<g>
			<g>
				<g>
					<path class="st1" d="M545.5,14.8c-4.6-4.2-9.6-7.8-14.9-10.5C525.2,1.4,520,0,515.2,0h-73.7c-5.4,0-11,1.6-16.6,4.6
						c-5.5,3-10.5,6.7-14.9,11.1c-4.4,4.4-8.1,9.3-10.9,14.5c-2.9,5.3-4.3,10.4-4.3,15v124.6c0,5.3,1.6,10.7,4.8,16.1
						c3.1,5.3,7,10.1,11.6,14.4c4.6,4.3,9.6,7.8,14.9,10.4c5.4,2.7,10.6,4.1,15.4,4.1h73.7c5.4,0,11-1.6,16.6-4.6
						c5.5-3,10.5-6.7,14.9-11.1c4.4-4.4,8.1-9.2,10.9-14.4c2.9-5.3,4.3-10.3,4.3-14.9V45.2c0-5.3-1.6-10.7-4.8-16.1
						C554,23.9,550.1,19,545.5,14.8z M546.6,166.3c0,3.4-1,7.1-3,10.9c-2.1,4-4.9,7.7-8.3,11c-3.4,3.3-7.3,6.2-11.5,8.4
						c-4.1,2.2-8.2,3.3-12.2,3.3h-66.3c-3.6,0-7.5-1-11.5-3c-4.1-2-8-4.7-11.5-7.9c-3.5-3.2-6.4-6.9-8.7-11c-2.2-4-3.4-7.9-3.4-11.8
						V48.8c0-3.3,1-6.9,3.1-10.8c2.1-4,4.8-7.8,8.2-11.1c3.3-3.3,7.2-6.2,11.5-8.4c4.2-2.2,8.3-3.3,12.3-3.3h66.3
						c3.4,0,7.3,1,11.4,3c4.2,2,8.1,4.7,11.5,8c3.5,3.3,6.4,7,8.8,11c2.2,3.9,3.4,7.8,3.4,11.6V166.3z"/>
				</g>
			</g>
			<g>
				<path class="st1" d="M551.4,654.4L551.4,654.4L551.4,654.4H447.8c-3.4,0-7.2-1-11.2-3c-4.2-2-8.1-4.7-11.6-7.9
					c-3.5-3.2-6.5-6.9-8.8-10.9c-2.2-3.9-3.4-7.8-3.4-11.6V503.2c0-3.3,1-6.9,3.1-10.7c2.1-4,4.8-7.7,8.2-11.2
					c3.3-3.4,7.2-6.3,11.5-8.5c4.1-2.2,8.3-3.3,12.3-3.3h103.5h0c4.1,0,7.5-3.3,7.5-7.5c0-4.1-3.3-7.5-7.5-7.5H443.9
					c-5.4,0-11,1.5-16.5,4.6c-5.4,3-10.3,6.7-14.6,11c-4.3,4.3-8,9.2-10.9,14.3c-2.9,5.3-4.4,10.3-4.4,14.9v125.1
					c0,5.3,1.6,10.7,4.8,16c3.1,5.2,6.9,9.9,11.4,14.1c4.5,4.2,9.5,7.7,14.8,10.4c5.4,2.8,10.6,4.2,15.4,4.2h107.4l0,0l0,0
					c4.1,0,7.5-3.3,7.5-7.5C558.8,657.8,555.5,654.4,551.4,654.4z"/>
			</g>
			<g>
				<path class="st1" d="M524.7,554.4L524.7,554.4h-31h-17.2h-28.9l0,0c-4.2,0-7.7,3.4-7.7,7.7c0,4.2,3.4,7.7,7.7,7.7l0,0h28.9h17.2
					h31l0,0c4.2,0,7.7-3.4,7.7-7.7C532.4,557.8,529,554.4,524.7,554.4z"/>
			</g>
			<g>
				<path class="st1" d="M561.9,415.7C561.9,415.7,561.9,415.7,561.9,415.7V232.5c0-4.3-3.5-7.8-7.8-7.8c-4.3,0-7.8,3.5-7.8,7.8
					v159.3v24c0,0,0,0,0,0h0c0,4.3-3.5,7.8-7.8,7.8c-2.9,0-5.5-1.6-6.8-4l0,0c-1.2-1.6-28.3-47.5-56.3-94.8l9.2,45.9
					c19.1,32.2,33.9,57.3,33.9,57.3c4.1,6.7,11.5,11.2,20,11.2C551.4,439.1,561.9,428.7,561.9,415.7L561.9,415.7z"/>
			</g>
		</g>
	</g>
</g>
</svg>
