<?xml version="1.0" encoding="utf-8"?>
<!-- Generator: Adobe Illustrator 19.0.0, SVG Export Plug-In . SVG Version: 6.00 Build 0)  -->
<svg version="1.1" id="Layer_1" xmlns="http://www.w3.org/2000/svg" xmlns:xlink="http://www.w3.org/1999/xlink" x="0px" y="0px"
	 viewBox="0 0 348.7 308.2" style="enable-background:new 0 0 348.7 308.2;" xml:space="preserve">
<style type="text/css">
	.st0{fill:#CC2229;}
	.st1{fill:#090A0B;}
	.st2{fill:#F8F7F7;}
	.st3{fill:#F0E517;}
	.st4{fill:#FDFDFD;}
	.st5{fill:#FEFEFE;}
</style>
<path class="st0" d="M210.9,132.5c0.7,0.3,1-0.2,1.4-0.6c6.9-7,8.8-20.3,4.1-28.8c-4.6-8.3-13.7-10.9-21.6-5.8
	c-2.1,1.3-3.3,1.2-4.8-0.5c-0.6-0.7-1.3-1.2-2.1-1.9C233,63.3,278,31.8,323.4,0c-7.9,52-15.7,103.5-23.6,155.4
	c16.4-6.7,32.6-13.3,48.9-20c-0.7,6.5-1.4,12.8-2.1,19c-1.5,13.9-3,27.8-4.6,41.7c-1.7,15.4-3.4,30.8-5.1,46.2
	c-1.5,13.7-3,27.5-4.5,41.2c-0.8,7.5-1.7,15.1-2.4,22.6c-0.2,1.9-1.3,1.8-2.6,1.8c-16.1,0-32.2,0-48.2,0c-0.4,0-0.8,0-1.4,0
	c0.4-0.9,1.3-0.9,2-1.1c9.4-4,14.9-10.8,15.8-21.2c1.2-15.1,2.8-30.2,4-45.4c0.5-6.7-0.5-13-6.7-17.1c-0.6-0.4-0.7-0.7-0.3-1.3
	c2.8-3.6,2.8-7.9,3.2-12.1c0.7-6.6,1.3-13.2,1.9-19.8c0.8-10.1-4.7-19.4-14-23.5c-4.3-1.9-8.6-3.9-12.9-5.7
	c-1.6-0.6-1.9-1.5-1.7-3.1c1.4-9.2,2.7-18.3,4.1-27.5c0.2-1.3,0-2.2-1.2-3c-6.1-3.9-12.2-7.9-18.2-12c-1.4-0.9-2.5-0.9-3.9-0.2
	c-12.2,5.8-24.4,11.6-36.6,17.3C212.6,132.8,211.8,133.9,210.9,132.5L210.9,132.5z M273.7,53c0,0.2-0.1,0.3-0.1,0.5
	c1.9,1.3,3.7,2.8,5.7,4c1.3,0.8,1.7,1.7,1.1,3.2c-0.8,2.1-1.5,4.3-2.3,6.5c2.1-1,4-2.3,5.6-3.7c1.5-1.4,2.7-1.5,4.2-0.1
	c1.6,1.5,3.5,2.7,5.3,4.1c-0.2-2.5-0.8-4.7-1.5-6.7c-0.6-1.6-0.3-2.6,1.2-3.5c1.8-1.2,3.7-2.3,5.3-4c-2.4,0-4.6-0.3-6.7,0.1
	c-2.3,0.4-2.9-0.5-3.4-2.4c-0.6-2.1-1.1-4.3-2.4-6.7c-0.7,2.4-1.4,4.3-1.8,6.2c-0.4,2-1.3,3-3.6,2.7C278.2,52.8,276,53,273.7,53z"/>
<path class="st1" d="M286.3,223.8c7.8,2.9,10.2,6.3,10.1,14c-0.1,8.6-1.4,17-2,25.5c-0.6,7.6-1.4,15.3-2.1,22.9
	c-0.6,7.3-4.6,12-10.8,15.3c-5.2,2.8-10.9,3.6-16.7,3.6c-78.2,0.1-156.5,0-234.7,0.1c-2.2,0-2.1-0.6-1.4-2.3
	c9.9-22.2,19.7-44.4,29.5-66.6c0.5-1.2,1.3-1.9,2.5-2.4c57.4-23.3,114.8-46.8,172.3-70c12.6-5.1,25.7-5,38.5,0.6
	c3.4,1.5,6.7,2.9,10.1,4.4c9.3,4.1,13.8,11.7,12.9,21.8c-0.7,7.4-1.6,14.8-2.2,22.2c-0.3,3.9-1.9,7-4.6,9.7
	C287.3,223.1,286.9,223.3,286.3,223.8z M237.2,219.4c0.1-0.3,0.1-0.4,0.2-0.4c0.5-0.4,1.1-0.7,1.6-1.1c4.4-3,6.8-6.9,7.2-12.3
	c0.4-6,1.3-11.9,1.7-17.9c0.4-4.9,1.5-9.8,1.1-14.8c-0.4-6.7-5.5-9.8-11.8-7.4c-22.6,8.8-44.8,18.4-67.2,27.5
	c-1.5,0.6-2.2,1.5-2.6,3.1c-9,33.9-17.9,67.8-27,101.6c-0.6,2.2-0.1,2.5,2,2.6c2.6,0.1,3.7-0.7,4.3-3.3c1.2-5.1,2.9-10.1,4.1-15.2
	c0.5-1.9,1.2-2.4,3.2-2.4c29.7,0.1,59.5,0,89.2,0.1c2.5,0,3-0.8,3.2-3c0.6-7.4,1.4-14.8,1.9-22.2c0.5-7.3,1.7-14.6,1.6-22
	C249.9,224.3,245.4,219.7,237.2,219.4z M115.6,233.1c-0.4,1.3-0.7,2-0.9,2.8c-6.6,20.8-13.2,41.6-19.9,62.3
	c-0.7,2.1-0.1,2.3,1.8,2.3c6-0.1,12-0.3,18-0.2c1.9,0,2.5-0.6,3-2.3c6.5-23.1,13.1-46.1,19.6-69.2c0.5-1.6,1.3-2.5,2.9-3
	c5.2-1.8,10.3-3.8,15.5-5.5c1.3-0.5,1.9-1.2,2.2-2.5c1.8-6.8,3.7-13.5,5.6-20.3c0.1-0.5,0.5-1-0.1-1.5c-16,6.6-32,13.4-48.2,19.6
	c-5.4,2.1-8.8,4.8-9.9,10.6c-0.7,3.8-2.5,7.5-3.9,11.6C106.2,236.2,110.7,234.7,115.6,233.1z M49.5,300.5c2.9,0,5.5-0.1,8.1,0
	c1.4,0.1,1.9-0.5,2.4-1.7c3.9-8.9,7.9-17.8,11.8-26.7c2.6-5.9,5.2-11.7,8-17.9c0.3,1.3-0.2,2.1-0.5,2.9
	c-4.7,13.8-9.5,27.6-14.3,41.3c-0.5,1.6-0.5,2.1,1.4,2c2.6-0.1,5.3-0.2,7.9,0c1.9,0.1,2.6-0.6,3.2-2.3c7.2-20.8,14.5-41.7,21.7-62.5
	c1.8-5.1,3.5-10.2,5.4-15.7c-6,2.5-11.6,4.8-17.2,7.1c-1.2,0.5-1.9,1.2-2.5,2.3c-4.1,8.2-8.3,16.3-12.5,24.5
	c-0.4,0.8-0.5,1.8-1.8,2.1c2.6-8.3,5.1-16.3,7.8-24.8c-4.9,1.9-9.3,3.7-13.9,5.3c-1.4,0.5-2.2,1.3-2.7,2.6
	c-5.6,13.5-11.3,26.9-17,40.3c-2.9,7-5.8,13.9-8.8,21.1c2.8,0,5.3-0.1,7.9,0c1.3,0.1,1.8-0.4,2.2-1.5c2.4-6.6,4.8-13.2,7.3-19.7
	c2.2-6,4.5-12,6.8-18c0.2,0.1,0.4,0.1,0.6,0.2C56.8,274.5,53.1,287.5,49.5,300.5z M161.8,300.7C161.8,300.7,161.8,300.7,161.8,300.7
	c1.8,0,3.5,0,5.3,0c3.4,0,4.2-0.8,4.2-4.2c0-0.6,0-1.3,0-1.9c0-3.1-0.9-3.9-4-4c-2.9,0-5.8,0-8.6,0c-0.9,0-2,0.4-2.1-1.4
	c0-1.9,1.2-1.7,2.2-1.5c3,0.8,6.5-1.9,9.2,1.5c0.3,0.4,2.3,0.1,3-0.8c0.6-0.6,0.2-1.7-0.1-2.5c-0.5-1.8-2-1.9-3.5-2
	c-2.8-0.1-5.6,0-8.4,0c-6,0-6.3,0.3-6.2,6.4c0,2.7,0.9,3.6,3.6,3.6c3.2,0,6.4,0.1,9.6,0c1.3,0,1.7,0.4,1.7,1.6
	c0,1.2-0.3,1.7-1.6,1.7c-2.8-0.1-5.6,0-8.4,0c-0.6,0-1.4,0.3-1.5-0.7c-0.2-2.4-1.7-0.7-2.6-0.8c-1.4-0.1-1.2,0.9-1.1,1.8
	c0.1,2,1.2,3.1,3.2,3.1C157.7,300.7,159.7,300.7,161.8,300.7z M259.2,300.7C259.2,300.7,259.2,300.7,259.2,300.7c2.2,0,4.3,0,6.5,0
	c1.9-0.1,2.9-1.1,3-3c0-0.8,0-1.6,0-2.4c0-4-0.7-4.7-4.8-4.7c-2.9,0-5.8,0-8.6,0c-0.8,0-1.5,0-1.3-1.1c0.1-0.6-0.5-1.7,0.7-1.7
	c1.9-0.1,3.9-0.3,5.7,0c1.6,0.2,4-1.5,4.6,1.5c0,0,0.3,0,0.4,0c1-0.3,2.6,0.1,3-1.1c0.4-1.2,0.2-2.8-1.1-3.6c-0.9-0.6-2-0.6-3-0.6
	c-2.6,0-5.1,0-7.7,0c-6.3,0-6.5,0.3-6.4,6.4c0.1,2.7,0.9,3.5,3.6,3.6c3.2,0,6.4,0.1,9.6,0c1.2,0,1.5,0.4,1.5,1.5
	c0,1.1,0,1.8-1.5,1.8c-2.9-0.1-5.8,0-8.6,0c-0.5,0-1.3,0.2-1.3-0.6c-0.2-2.4-1.6-0.9-2.6-0.9c-1.6,0-1.1,1.2-1.1,2.1
	c0.1,2,1.3,2.8,3.1,2.9C255,300.7,257.1,300.7,259.2,300.7z M210.1,294.6c5.6-0.7,6-1.2,5.8-6.8c-0.1-2.8-1-3.8-3.8-3.8
	c-4.4-0.1-8.8,0-13.2,0c-1.2,0-1.5,0.4-1.5,1.5c0,4.6,0,9.3,0,13.9c0,1.1,0.4,1.3,1.4,1.4c1.8,0.2,2.6-0.4,2.3-2.3
	c-0.1-0.9,0-1.9,0-2.9c0-0.6,0-1.2,0.8-1.1c1.6,0,3.1-0.3,4.4,1.1c0.9,1.1,2.2,1.8,3.1,3c2,2.4,4.5,2.5,7.6,2
	C214.6,298.5,212.4,296.6,210.1,294.6z M184.5,300.7c2.4,0,4.8-0.1,7.2,0c1.3,0.1,1.6-0.4,1.6-1.6c-0.1-1.1,0.2-2-1.5-1.9
	c-3.4,0.1-6.9,0-10.3,0.1c-1.4,0-2.1-0.1-2.2-1.8c0-1.9,0.9-1.9,2.2-1.8c1.4,0.1,2.9,0,4.3,0c1.1,0.1,1.7-0.1,1.7-1.5
	c0-1.3-0.3-1.8-1.7-1.7c-1.4,0.1-2.9,0.1-4.3,0c-0.9,0-2.1,0.5-2.2-1.3c-0.1-1.8,1.1-1.4,2-1.4c3.4,0,6.9-0.1,10.3,0
	c1.5,0,1.5-0.7,1.5-1.8c0-1.1,0.2-2-1.5-2c-4.8,0.1-9.6,0.1-14.4,0c-1.2,0-1.7,0.3-1.7,1.6c0.1,4.6,0.1,9.1,0,13.7
	c0,1.2,0.3,1.5,1.5,1.5C179.6,300.7,182.1,300.7,184.5,300.7z M237.7,300.7c2.4,0,4.8-0.1,7.2,0c1.5,0.1,1.6-0.6,1.7-1.8
	c0-1.3-0.3-1.8-1.7-1.8c-3.3,0.1-6.5,0-9.8,0c-1.2,0-2.5,0.5-2.5-1.7c0-2,1-1.9,2.4-1.9c1.4,0.1,2.9,0,4.3,0
	c1.3,0.1,1.4-0.6,1.4-1.6c0-1-0.2-1.7-1.4-1.6c-1.7,0.1-3.4,0-5,0c-1.1,0-1.6-0.2-1.6-1.4c0-1.4,0.7-1.3,1.6-1.3
	c3.4,0,6.9-0.1,10.3,0c1.4,0,1.7-0.5,1.7-1.8c0-1.3-0.1-2.1-1.8-2c-4.6,0.1-9.3,0.1-13.9,0c-1.1,0-1.7,0.2-1.7,1.5
	c0.1,4.6,0.1,9.1,0,13.7c0,1.3,0.5,1.6,1.7,1.6C233,300.7,235.3,300.7,237.7,300.7z M224,292.4c0-2.3-0.1-4.6,0-6.9
	c0.1-1.4-0.7-1.5-1.8-1.5c-1,0.1-2.1-0.3-2.1,1.4c0.1,4.6,0.1,9.3,0,13.9c0,1.8,1.1,1.4,2.1,1.4c1,0,1.9,0.2,1.8-1.4
	C223.9,297,224,294.7,224,292.4z"/>
<path class="st0" d="M152.7,160.9c-7.1,3.8-14.5,7-21.7,10.5c-19.5,9.3-39.1,18.6-58.6,27.7c-1.4,0.6-1.9,1.6-2.4,2.8
	c-15.1,34.4-30.2,68.8-45.2,103.3c-0.9,2.1-1.9,3-4.3,2.9c-6.2-0.2-12.3-0.1-18.5,0c-1.8,0-2.6,0-1.6-2.2
	c11.6-23.7,23-47.5,34.5-71.3c7.6-15.8,15.3-31.6,22.9-47.4c0.6-1.2,1.3-2.1,2.4-2.9c33.7-23.6,67.4-47.2,101.1-70.8
	c0.6-0.4,1.2-0.8,2-1.3c0.5,3.6,1.2,6.9,2,10.3c0.7,2.9,0,3.7-2.8,4.5c-1.7,0.3-3.2,1-4.3,2.4l0.1-0.1c-0.9,0-0.7,1.1-1.4,1.4
	c-0.1,0.4-0.3,0.6-0.7,0.7c-0.1,0.1-0.1,0.2-0.2,0.3c-4.5,4.5-6,10.4-6.8,16.3C148.5,152.5,150.2,156.9,152.7,160.9z"/>
<path class="st1" d="M152.7,160.9c-2.5-4-4.2-8.4-3.5-13.1c0.9-5.9,2.3-11.8,6.8-16.3c0.1-0.1,0.1-0.2,0.2-0.3
	c0.4-0.1,0.6-0.3,0.7-0.7c0.2-0.7,1.4-0.4,1.4-1.4c0,0-0.1,0.1-0.1,0.1c1.5-0.6,2.9-1.2,4.4-1.8c1.3-0.1,2.9-0.6,2.3,1.8
	c0,0,0.1-0.1,0.1-0.1c-0.6,0.4-1,0.8-0.5,1.5l0-0.1c-0.8,0-0.7,0.5-0.5,1l0-0.1c-0.8,0-0.5,0.6-0.5,1l0,0c-1.6-0.1-3,0.5-4.3,1.3
	c-5.9,3.7-8.9,14.3-5.8,20.5c2.4,5,7,5.8,11.1,2c3.5-3.3,5.1-7.5,5.5-12.1c0.1-1.8,0.4-3.3,1.7-4.5l0,0c1-0.1,1.7-0.4,1.9-1.5l0,0
	c0.9,0.5,0.8,1.4,0.9,2.3c0.2,5.2-1.1,10.1-3.6,14.7c-0.1,0.2-0.4,0.5,0,0.7c0.1,0,0.3-0.2,0.5-0.3c8.9-4.2,17.9-8.3,26.8-12.6
	c17.4-8.2,34.7-16.4,52.1-24.7c1.1-0.5,1.8-0.5,2.8,0.1c5.2,3.5,10.5,7,15.8,10.4c0.8,0.5,1.1,1,1,2.1c-1.3,8.5-2.5,17.1-3.7,25.6
	c-0.3,1.9-0.8,2.3-2.8,1.9c-11.1-2.2-21.9-1.5-32.4,2.8c-56,22.8-112,45.6-168,68.4c-0.5,0.2-1,0.3-1.9,0.7c1.2-2.6,2.1-4.8,3.1-7
	c2.8-6.3,5.6-12.5,8.3-18.8c0.7-1.7,1.8-2.8,3.5-3.6c26.2-12.4,52.4-24.8,78.6-37.2c0.4-0.2,0.8-0.4,1.3-0.7
	C154.7,162.5,153.7,161.7,152.7,160.9z M111.2,196c-2.4,0.1-4.3,2-6.7,2.4c0-2.3,1.1-3.5,3-4.2c2.8-1.1,5.4-2.6,8.2-3.7
	c2.5-1,3.2-2.8,3.1-5.1c0.1,0,0.2,0,0.3-0.1c0-0.1-0.1-0.1-0.1-0.2c-0.1,0.1-0.1,0.2-0.2,0.3c-3.4,0.8-6.3,3.1-9.6,4.1
	c-4.7,1.5-7.1,4.5-8.1,9.3c-1,4.8-2.7,9.4-4.2,14.5c4.7-2,9-4,13.4-5.5c3-1,3.8-3,4-5.9c-4.2,1.8-8.2,3.5-12.4,5.4
	c0.2-3.1,1.2-5,4-5.6c0.7-0.2,1.3-0.7,2-0.9C110.5,200.2,111.2,198.3,111.2,196c0.1-0.1,0.2-0.1,0.3-0.2c-0.1,0-0.2-0.1-0.3-0.1
	C111.2,195.8,111.2,195.9,111.2,196z M240.9,127.7c-3.4,1.3-6.2,2.6-8.2,5.7c-3.5,5.4-7.5,10.6-11,15.9c-1.2,1.8-1.8,1.5-2.9,0.1
	c-1.3-1.7-2.8-3.2-4.3-4.8c-2.9-3.2-2.8-3.1-6.7-1.4c-1.9,0.8-2.8,1.8-3.1,4c-0.5,3.5-1.4,7-2.1,10.6c-0.8,3.9-1.5,7.8-2.2,11.7
	c4-0.6,6.1-2.4,6.5-6.4c0.5-4.5,1.6-8.8,2.5-13.6c2.7,3.1,5.1,5.9,7.4,8.7c1.2,1.4,1.9,1.3,2.9-0.1c1.2-1.8,2.5-3.5,3.7-5.3
	c3.2-4.5,6.4-9.1,9.6-13.6c0.1,0.1,0.3,0.1,0.4,0.2c-1,5.8-1.9,11.7-2.9,17.8c1.6-0.7,2.9-1.3,4.2-1.7c1.6-0.5,2.4-1.5,2.5-3.3
	c0.2-2.5,0.8-5,1.2-7.6C239.1,138.9,240,133.4,240.9,127.7z M169.2,161.6c-3.3,0.7-5.1,2.5-5.5,5.9c-0.5,3.4-1.6,6.7-2.3,10
	c-0.4,1.7-0.7,2.4-2.5,1c-2.7-2.1-5.6-4-8.4-6c-2.7-1.9-5-1.1-5.9,2.1c-1.2,4.7-2.5,9.4-3.7,14.1c-0.5,2.1-1,4.2-1.6,6.5
	c3-0.6,4.5-1.9,5-4.8c0.7-4.2,2-8.3,3.2-12.7c3.9,2.8,7.5,5.5,11.2,8.2c1.5,1.1,4.7,0.1,5.1-1.5
	C165.7,176.7,167.4,169.2,169.2,161.6z M166.5,183.7c3.1-0.5,4.9-1.9,6.1-4.3c0.8-1.6,1.3-3.5,3.2-4.3c4.2-1.8,8.3-3.6,12.5-5.4
	c0.9-0.4,1.3-0.4,1.7,0.7c1.3,3.2,1.4,3.1,4.6,1.8c0.5-0.2,1-0.4,1.6-0.6c0.9-0.3,1.1-0.8,0.6-1.8c-2.5-5.4-4.9-10.9-7.2-16.4
	c-0.5-1.1-0.9-1.1-2-0.7c-2.4,0.9-4.1,2.4-5.4,4.7C177.1,166,171.9,174.7,166.5,183.7z M123.7,201.9c2.6-0.4,4.1-1.4,4.6-4
	c0.6-3.1,2-6.1,2.4-9.2c0.5-4.7,3-7.3,7.3-8.4c3.1-0.8,3.4-3.1,3.7-5.9c-5.9,2.8-11.5,5.6-17.3,8.1c-2.7,1.1-3.3,3-3.6,5.7
	c2.5-1.1,4.9-2.2,7.6-3.4C126.7,190.7,125.2,196.1,123.7,201.9z M77.7,221.4c1.4-0.1,2.2-0.9,2.9-2c3.3-5.7,6.7-11.4,10.1-17.1
	c0.9-1.6,1.9-3.2,3-5c-1.9,0.4-2.9,1.2-3.7,2.6c-2.6,4.7-5.4,9.2-8.1,13.8c-0.3,0.5-0.3,1.3-1.2,1.2c-0.3-3.7-0.6-7.4-1-11.6
	c-1.2,1.3-3.4,0.8-3.3,2.8C76.7,211.3,77.2,216.3,77.7,221.4z M89.4,216.6c1.5-0.7,3-0.6,3.4-2.1c2-6.5,3.9-13.1,6-20
	c-1.4,0.9-2.9,0.8-3.4,2.2C93.4,203.2,91.5,209.7,89.4,216.6z"/>
<path class="st1" d="M210.9,132.5c-0.9-0.5-1.2,0.4-1.7,0.8c-8.6,6.9-19.2,3.9-23-6.5c-1-2.6-1.2-5.4-1.6-8.2
	c-3.2,6-7.1,11.9-4.2,19.3c0.5,1.2,1.2,2.9,0,3.7c-1,0.7-2.3-0.7-3.3-1.4c-1.1-0.9-2.2-1.8-3.2-2.7c0-0.5,0.4-0.6,0.7-0.8
	c2.7-1.5,3.2-2.6,2.6-5.9c-1.5,1.1-3.8-0.2-5,2.3c-1.8,3.6-2,3.5,1.6,4.5c-0.5,0.2-0.9,0.5-0.2,1c0,0,0,0,0,0
	c-1.3-0.3-1.9,0.2-1.9,1.5c0,0,0,0,0,0c-0.9-1-1.3,0.2-1.8,0.5c-4.3,3.2-8.5,6.4-12.8,9.7c1.8-5.4,4-10.5,6.1-15.6
	c0.2-0.5,1-1.1,0.3-1.8c0,0,0,0,0,0c0.8,0,0.9-0.4,0.5-1c0,0,0,0.1,0,0.1c0.8,0,0.7-0.5,0.5-1c0,0,0,0.1,0,0.1
	c0.6-0.3,1.1-0.7,0.5-1.5c0,0-0.1,0.1-0.1,0.1c1.8-1.6,2.6-4.8,1.8-7.5c-1.2-4-2-8-1.7-12.2c0.1-1-0.4-1.5-1.1-1.9
	c-2.2-1.4-4.3-2.8-6.5-4.1c-1.3-0.7-1.3-1.3-0.4-2.3c1.3-1.5,2.3-3.2,3.6-4.8c1.2-1.4,1.7-3,2.2-4.7c0.3-1.3,0-1.6-1.2-1.9
	c-3.2-0.9-6-2.5-8.4-4.8c-0.7-0.7-1-1.2,0.2-2c3.7-2.4,7.5-4.6,11.6-6.1c0.8-0.3,1.6-0.8,2.5-0.1c0.5,0.4,0.9,0,1.4-0.3
	c2.8-1.8,5.6-1.1,8.4-0.1c0.6,0.2,1.2,0.6,1.6-0.2c0.3-0.6,0.1-1.2-0.5-1.7c-1.4-1.1-1.7-3.1-3.1-4.3c-0.5-0.4,0.1-0.8,0.4-1.1
	c3.3-3.7,7.2-5.2,12.2-3.4c1.5,0.5,2.4,1.5,3.1,2.7c0.8,1.3,1,2.4-0.4,3.5c-0.7,0.6,0.2,1.9-0.7,2.6c0-2.7-0.6-3.4-3.5-3.7
	c-0.9-0.1-1.9,0-2.8,0.2c-0.7,0.1-1.9-0.1-2,0.9c-0.1,1.1,0.9,1.5,1.8,1.9c2.1,0.8,4.4-0.1,6.5,0.7c-0.4,0.9-0.8,1.7-1.1,2.6
	c-1.1,3.7-1.4,3.9-4.9,2.3c-1.2,1.6-0.8,3,0.5,4.1c3.5,2.6,3.3,5.7,1.3,9c-1,1.7-0.8,2.7,0.9,3.8c1.9,1.2,3.3,3.5,5.2,4.1
	c2.1,0.6,3.5-2,5.5-2.8c8.6-3.6,17,1.5,19.2,10.5c2.2,8.8,0.3,16.8-5.7,23.7C210.9,131.9,210.4,132.1,210.9,132.5
	C210.9,132.5,210.9,132.5,210.9,132.5z M163.6,141.4c2-1.5,4.1-3,6.1-4.6c-0.8-1.1-1.5-2.1-2.8-2.7c-1.2,2.4-2.4,4.8-3.5,7.1
	c-0.2,0.1-0.4,0.3-0.2,0.5C163.4,141.8,163.5,141.6,163.6,141.4z M191.8,109.1c0.4-0.7,0.7-0.3,1.1,0c0.8,0.8,1.6,1.8,2.5,2.6
	c0.4,0.4,0.8,1.5,1.7,0.6c0.9-0.9,0-1.3-0.5-1.9c-0.4-0.6-1.4-0.8-1-2.5c1.4,3.2,3.4,1.8,5.3,1.7c1.7-0.1,2.5,0.6,2.9,2
	c0.1,0.6-1.6-0.6-0.8,0.6c1.2,1.8,1.2,3.7,0.9,5.6c1.8-2.1,0.2-4.1-0.1-6.3c0.6-0.6,0.8,0.1,1,0.4c1.3,2.1,1.2,5.6-0.4,7.7
	c-2.2,3.1-6.3,3-8-0.4c-1.4-2.8-3.8-4.4-5.7-6.7c-0.7-0.8-1.2-0.9-1.5,0.4c-1.4,5.1-1.5,10.1,1.2,14.8c3,5.3,8.5,6.8,13.7,4.1
	c8.7-4.6,11.9-18.4,6.1-26.3c-2.6-3.5-6.1-4.9-10.3-4C195.9,102.4,193.3,105.2,191.8,109.1c-3.4-2.5-5.9-6-9-8.9
	c-0.9-0.9,0.9-0.7,0.3-1.1c-1.1-0.7-2.3-1.4-3.5-1.9c-0.4-0.2-1-0.2-1.2,0.4c-0.2,0.5,0,0.9,0.4,1.3c1.2,1.2,2.2,2.6,3.5,3.6
	c2,1.5,2.1,3.1,1.1,5.3c-1.4,3.1-2.5,6.3-3.7,9.5c2.1-2.9,3.8-6,5.2-9.2c0.9-2,1.4-1.5,2.6-0.3c3.3,3.5,6.7,6.9,10.1,10.3
	c0.4,0.5,1,1.4,1.7,0.6c0.7-0.7-0.4-1.2-0.8-1.7c-0.1-0.2-0.4-0.3-0.5-0.5C196.1,113.9,193.4,112,191.8,109.1z M176.8,129.5
	c-0.1-0.3-0.1-0.4-0.2-0.4c-0.5-0.3-0.9-0.6-1.4-0.9c-3.5-2.6-5.7-5.6-4.6-10.4c0.7-2.8,0.8-5.7,1.1-8.5c0.1-0.5,0.7-1.4-0.3-1.6
	c-0.9-0.2-1.4,0.4-1.6,1.3c-1,4.6-1.2,9.2-0.4,13.8c0.2,1.2,0.8,2.3-0.5,3.3c1.9,0.8,4.4,1,4.9,2.5c0.8,2.2,1.9,0.7,2.8,0.9
	C176.6,129.7,176.7,129.6,176.8,129.5z M201.8,99.3c8,0.3,13,4.2,14.5,12.3c0.3-8.8-9-17.1-16.7-13.3c2-0.1,3.4-0.4,5-0.1
	C203.6,98.7,202.7,99,201.8,99.3z M188.9,100.7c0.2-1.5-0.6-2.1-1.3-2.7c-2.5-2-5.1-3.8-8-5.2c-2.1-1-4.2-1.8-6.5-2.3
	c-0.6-0.1-1.1-0.1-1.3,0.6c-0.1,0.6,0.3,0.6,0.7,0.7C178.9,92.9,184,96.5,188.9,100.7z M161.3,99c2.3,1.3,4.7,2.5,7,3.9
	c1,0.6,2,1.3,2.2,2.7c0.1,0.5-0.3,1.2,0.7,1.2c0.8,0,1.3-0.3,1.6-1.1c0.6-1.4,0-2.2-1.3-2.9c-3-1.5-6.3-2.2-9.1-4.1
	C162.2,98.5,161.6,98.5,161.3,99z M174.9,124.1c1.2-3.1,2.2-5.8,3.2-8.5c0.2-0.4,0.3-0.8-0.2-1c-0.4-0.2-1-0.4-1.2,0.3
	C175.7,117.7,172.9,120.2,174.9,124.1z M170.6,92.1c0.3-1.2,1.5-2.6,0.5-3.3c-1.7-1.3-3.9-2.1-6.1-0.5c0.5,0.4,1.4,0.4,1.5,1.4
	c0.2,1.3,1.4,1.5,2.2,1.2C170,90.4,170.3,91,170.6,92.1z M166.7,82.9c-2.1,0-4.1,0.4-6.1,1.4c1.2,1.3,1.2,1.2,2.5,0.4
	C164.2,84,165.5,83.5,166.7,82.9z"/>
<path class="st0" d="M183.8,123.1c2.2,10.2,7.9,15.2,16.9,15.4c-8.8,4.2-17.6,8.3-26.7,12.7c0.8-3.5,1.8-6.7,1.5-10.3
	c1.1,0.7,2,1.3,2.9,1.7c2.6,1.2,4.1,0.2,3.8-2.6c-0.1-0.9-0.3-1.9-0.6-2.8C179.9,132.1,180.8,127.6,183.8,123.1z"/>
<path class="st2" d="M173.8,137.5c-3.5-1-3.3-0.9-1.6-4.5c1.2-2.4,3.5-1.2,5-2.3c0.6,3.4,0.1,4.4-2.6,5.9c-0.3,0.2-0.7,0.4-0.7,0.8
	L173.8,137.5z"/>
<path class="st2" d="M162.6,127.5c-1.5,0.6-2.9,1.2-4.4,1.8c1.1-1.4,2.6-2,4.3-2.4C162.6,127.1,162.6,127.3,162.6,127.5z"/>
<path class="st3" d="M273.7,53c2.2,0,4.4-0.2,6.6,0.1c2.2,0.2,3.1-0.7,3.6-2.7c0.4-1.9,1.1-3.8,1.8-6.2c1.3,2.3,1.8,4.6,2.4,6.7
	c0.5,1.9,1.2,2.8,3.4,2.4c2.1-0.4,4.3-0.1,6.7-0.1c-1.6,1.7-3.5,2.9-5.3,4c-1.5,0.9-1.8,1.9-1.2,3.5c0.7,2.1,1.3,4.3,1.5,6.7
	c-1.8-1.3-3.6-2.6-5.3-4.1c-1.6-1.5-2.7-1.3-4.2,0.1c-1.6,1.5-3.4,2.7-5.6,3.7c0.7-2.2,1.4-4.4,2.3-6.5c0.6-1.5,0.2-2.3-1.1-3.2
	c-2-1.2-3.8-2.7-5.7-4C273.7,53.3,273.7,53.1,273.7,53z"/>
<path class="st4" d="M237.2,219.4c8.2,0.3,12.8,4.9,12.9,13c0.1,7.4-1.1,14.6-1.6,22c-0.5,7.4-1.4,14.8-1.9,22.2
	c-0.2,2.1-0.7,3-3.2,3c-29.7-0.1-59.5-0.1-89.2-0.1c-1.9,0-2.7,0.5-3.2,2.4c-1.3,5.1-3,10.1-4.1,15.2c-0.6,2.6-1.7,3.4-4.3,3.3
	c-2.2-0.1-2.6-0.4-2-2.6c9.1-33.9,18-67.7,27-101.6c0.4-1.5,1-2.4,2.6-3.1c22.4-9.1,44.6-18.7,67.2-27.5c6.2-2.4,11.3,0.7,11.8,7.4
	c0.3,5-0.7,9.9-1.1,14.8c-0.5,6-1.3,11.9-1.7,17.9c-0.4,5.4-2.8,9.4-7.2,12.3c-0.5,0.4-1.1,0.7-1.6,1.1
	C237.3,219,237.3,219.1,237.2,219.4z M181.5,265.2c0.8,0,1.2,0,1.6-0.1c5.8-0.8,11.6-1.5,17.3-2.3c5.6-0.8,10.2-4.8,11.5-10.4
	c1.7-6.7-2.6-11.6-9.4-10.4c-5.3,0.9-10.5,2-15.7,3c-0.8,0.1-1.4,0.3-1.6,1.2C184,252.5,182.8,258.7,181.5,265.2z M190.9,218.4
	c5.9-1.9,11.8-3,17.1-5.4c3.4-1.5,5.7-4.6,6.4-8.4c0.8-4.3-1.1-6.3-5.5-5.3c-4.6,1-8.9,3-13.4,4.3c-1.5,0.4-2,1.2-2.3,2.6
	C192.6,210,191.8,213.9,190.9,218.4z"/>
<path class="st4" d="M115.6,233.1c-4.9,1.6-9.4,3.1-14.3,4.8c1.4-4.1,3.1-7.8,3.9-11.6c1.1-5.8,4.5-8.6,9.9-10.6
	c16.2-6.2,32.2-13,48.2-19.6c0.6,0.5,0.2,1,0.1,1.5c-1.8,6.8-3.7,13.5-5.6,20.3c-0.3,1.2-0.9,2-2.2,2.5c-5.2,1.8-10.3,3.7-15.5,5.5
	c-1.6,0.5-2.4,1.4-2.9,3c-6.5,23.1-13.1,46.1-19.6,69.2c-0.5,1.8-1.2,2.4-3,2.3c-6-0.1-12,0-18,0.2c-1.9,0-2.5-0.2-1.8-2.3
	c6.7-20.8,13.3-41.6,19.9-62.3C114.9,235.1,115.2,234.4,115.6,233.1z"/>
<path class="st4" d="M49.5,300.5c3.7-13,7.4-26,11-39c-0.2-0.1-0.4-0.1-0.6-0.2c-2.3,6-4.5,12-6.8,18c-2.4,6.6-4.9,13.1-7.3,19.7
	c-0.4,1.1-0.9,1.6-2.2,1.5c-2.5-0.1-5.1,0-7.9,0c3-7.2,5.9-14.1,8.8-21.1c5.7-13.4,11.4-26.8,17-40.3c0.6-1.4,1.4-2.1,2.7-2.6
	c4.5-1.7,9-3.5,13.9-5.3c-2.7,8.5-5.2,16.5-7.8,24.8c1.3-0.3,1.5-1.4,1.8-2.1c4.2-8.1,8.4-16.3,12.5-24.5c0.6-1.1,1.3-1.8,2.5-2.3
	c5.6-2.2,11.2-4.6,17.2-7.1c-1.9,5.6-3.6,10.6-5.4,15.7c-7.2,20.8-14.5,41.7-21.7,62.5c-0.6,1.7-1.3,2.4-3.2,2.3
	c-2.6-0.2-5.3-0.1-7.9,0c-1.9,0.1-1.9-0.5-1.4-2c4.8-13.8,9.6-27.5,14.3-41.3c0.3-0.8,0.8-1.6,0.5-2.9c-2.7,6.2-5.3,12-8,17.9
	c-3.9,8.9-7.9,17.8-11.8,26.7c-0.5,1.2-1,1.8-2.4,1.7C55,300.4,52.3,300.5,49.5,300.5z M80.4,253.8c0-0.1-0.1-0.3-0.1-0.4
	c0,0.1-0.1,0.1-0.1,0.2c0,0.1,0,0.3,0,0.4C80.2,253.9,80.3,253.8,80.4,253.8z"/>
<path class="st2" d="M161.8,300.7c-2.1,0-4.2,0-6.2,0c-2,0-3.1-1.1-3.2-3.1c0-0.9-0.3-1.9,1.1-1.8c0.9,0.1,2.4-1.6,2.6,0.8
	c0.1,1,0.9,0.7,1.5,0.7c2.8,0,5.6,0,8.4,0c1.3,0,1.6-0.5,1.6-1.7c0-1.3-0.4-1.7-1.7-1.6c-3.2,0.1-6.4,0.1-9.6,0
	c-2.7,0-3.5-0.9-3.6-3.6c-0.1-6.1,0.1-6.4,6.2-6.4c2.8,0,5.6-0.1,8.4,0c1.4,0,2.9,0.2,3.5,2c0.3,0.9,0.6,1.9,0.1,2.5
	c-0.8,0.8-2.7,1.2-3,0.8c-2.7-3.4-6.2-0.7-9.2-1.5c-1-0.2-2.2-0.5-2.2,1.5c0,1.8,1.1,1.4,2.1,1.4c2.9,0,5.8,0,8.6,0c3.1,0,4,0.9,4,4
	c0,0.6,0,1.3,0,1.9c0,3.4-0.8,4.2-4.2,4.2C165.3,300.7,163.6,300.7,161.8,300.7C161.8,300.7,161.8,300.7,161.8,300.7z"/>
<path class="st2" d="M259.2,300.7c-2.1,0-4.2,0-6.2,0c-1.9,0-3-0.9-3.1-2.9c-0.1-0.9-0.5-2.1,1.1-2.1c0.9,0,2.4-1.6,2.6,0.9
	c0.1,0.8,0.8,0.6,1.3,0.6c2.9,0,5.8-0.1,8.6,0c1.5,0.1,1.4-0.7,1.5-1.8c0-1.1-0.3-1.6-1.5-1.5c-3.2,0.1-6.4,0-9.6,0
	c-2.8,0-3.6-0.8-3.6-3.6c-0.2-6.2,0.1-6.4,6.4-6.4c2.6,0,5.1,0,7.7,0c1,0,2.1,0,3,0.6c1.3,0.9,1.5,2.4,1.1,3.6
	c-0.4,1.2-1.9,0.8-3,1.1c-0.1,0-0.4,0-0.4,0c-0.7-3.1-3.1-1.3-4.6-1.5c-1.9-0.3-3.8-0.1-5.7,0c-1.1,0.1-0.6,1.1-0.7,1.7
	c-0.2,1.1,0.6,1.1,1.3,1.1c2.9,0,5.8,0,8.6,0c4.1,0,4.8,0.7,4.8,4.7c0,0.8,0,1.6,0,2.4c-0.1,1.9-1.1,3-3,3
	C263.5,300.7,261.4,300.7,259.2,300.7C259.2,300.7,259.2,300.7,259.2,300.7z"/>
<path class="st2" d="M210.1,294.6c2.3,2,4.5,3.8,7,5.9c-3.1,0.5-5.6,0.4-7.6-2c-0.9-1.1-2.2-1.9-3.1-3c-1.3-1.5-2.8-1.1-4.4-1.1
	c-0.8,0-0.8,0.6-0.8,1.1c0,1-0.1,1.9,0,2.9c0.3,1.9-0.5,2.5-2.3,2.3c-1-0.1-1.4-0.3-1.4-1.4c0-4.6,0-9.3,0-13.9
	c0-1.1,0.3-1.6,1.5-1.5c4.4,0.1,8.8,0,13.2,0c2.8,0.1,3.6,1,3.8,3.8C216.1,293.4,215.7,293.9,210.1,294.6z M206.4,287.7
	c-1.3,0-2.7,0.1-4,0c-1.4-0.1-1.3,0.7-1.3,1.6c0,0.9-0.1,1.7,1.3,1.7c2.6-0.1,5.2,0,7.9,0c1.2,0,1.7-0.7,1.7-1.8
	c0-1.1-0.6-1.6-1.7-1.5C209,287.7,207.7,287.7,206.4,287.7z"/>
<path class="st2" d="M184.5,300.7c-2.5,0-5,0-7.4,0c-1.2,0-1.5-0.4-1.5-1.5c0.1-4.6,0.1-9.1,0-13.7c0-1.3,0.4-1.6,1.7-1.6
	c4.8,0.1,9.6,0.1,14.4,0c1.7,0,1.5,1,1.5,2c0,1.1,0,1.8-1.5,1.8c-3.4-0.1-6.9,0-10.3,0c-0.9,0-2.1-0.4-2,1.4
	c0.1,1.8,1.2,1.3,2.2,1.3c1.4,0.1,2.9,0.1,4.3,0c1.4-0.1,1.7,0.4,1.7,1.7c0,1.4-0.6,1.6-1.7,1.5c-1.4-0.1-2.9,0-4.3,0
	c-1.3,0-2.2,0-2.2,1.8c0,1.8,0.8,1.9,2.2,1.8c3.4-0.1,6.9,0.1,10.3-0.1c1.7-0.1,1.4,0.9,1.5,1.9c0.1,1.2-0.3,1.7-1.6,1.6
	C189.3,300.6,186.9,300.7,184.5,300.7z"/>
<path class="st2" d="M237.7,300.7c-2.4,0-4.8,0-7.2,0c-1.2,0-1.7-0.2-1.7-1.6c0.1-4.6,0.1-9.1,0-13.7c0-1.4,0.6-1.6,1.7-1.5
	c4.6,0,9.3,0.1,13.9,0c1.7,0,1.7,0.7,1.8,2c0,1.3-0.3,1.8-1.7,1.8c-3.4-0.1-6.9,0-10.3,0c-0.9,0-1.7-0.1-1.6,1.3
	c0,1.2,0.5,1.5,1.6,1.4c1.7-0.1,3.4,0,5,0c1.2-0.1,1.4,0.6,1.4,1.6c0,1-0.1,1.7-1.4,1.6c-1.4-0.1-2.9,0-4.3,0
	c-1.4-0.1-2.4-0.1-2.4,1.9c0,2.2,1.3,1.7,2.5,1.7c3.3,0,6.6,0.1,9.8,0c1.4,0,1.7,0.4,1.7,1.8c0,1.2-0.2,1.9-1.7,1.8
	C242.5,300.6,240.1,300.7,237.7,300.7z"/>
<path class="st2" d="M224,292.4c0,2.3-0.1,4.6,0,6.9c0.1,1.6-0.8,1.4-1.8,1.4c-1,0-2.1,0.4-2.1-1.4c0.1-4.6,0.1-9.3,0-13.9
	c0-1.7,1.1-1.4,2.1-1.4c1.1-0.1,1.8,0,1.8,1.5C224,287.7,224,290.1,224,292.4z"/>
<path class="st2" d="M158.3,129.3c0.1,1-1.2,0.6-1.4,1.4C157.5,130.4,157.4,129.3,158.3,129.3z"/>
<path class="st2" d="M156.2,131.3c-0.1,0.1-0.1,0.2-0.2,0.3C156.1,131.5,156.2,131.4,156.2,131.3z"/>
<path class="st2" d="M240.9,127.7c-0.9,5.7-1.8,11.2-2.6,16.7c-0.4,2.5-1,5-1.2,7.6c-0.1,1.8-0.9,2.7-2.5,3.3
	c-1.4,0.4-2.6,1.1-4.2,1.7c1-6.1,2-11.9,2.9-17.8c-0.1-0.1-0.3-0.1-0.4-0.2c-3.2,4.5-6.4,9.1-9.6,13.6c-1.2,1.8-2.5,3.5-3.7,5.3
	c-1,1.4-1.7,1.6-2.9,0.1c-2.3-2.9-4.7-5.6-7.4-8.7c-0.9,4.8-2,9.2-2.5,13.6c-0.4,4-2.5,5.9-6.5,6.4c0.8-3.9,1.5-7.8,2.2-11.7
	c0.7-3.5,1.6-7,2.1-10.6c0.3-2.1,1.2-3.1,3.1-4c3.9-1.7,3.9-1.8,6.7,1.4c1.4,1.6,3,3.2,4.3,4.8c1.1,1.4,1.7,1.7,2.9-0.1
	c3.6-5.4,7.6-10.5,11-15.9C234.6,130.2,237.5,128.9,240.9,127.7z"/>
<path class="st2" d="M169.2,161.6c-1.8,7.6-3.5,15.2-5.3,22.8c-0.4,1.7-3.7,2.6-5.1,1.5c-3.7-2.7-7.3-5.3-11.2-8.2
	c-1.1,4.4-2.4,8.5-3.2,12.7c-0.5,2.9-2.1,4.3-5,4.8c0.5-2.2,1-4.4,1.6-6.5c1.2-4.7,2.5-9.4,3.7-14.1c0.9-3.2,3.1-4.1,5.9-2.1
	c2.8,2,5.7,3.8,8.4,6c1.7,1.4,2.1,0.7,2.5-1c0.7-3.4,1.8-6.6,2.3-10C164.1,164.1,165.9,162.3,169.2,161.6z"/>
<path class="st2" d="M166.5,183.7c5.4-9,10.6-17.6,15.7-26.4c1.3-2.3,3-3.7,5.4-4.7c1-0.4,1.5-0.5,2,0.7c2.3,5.5,4.7,11,7.2,16.4
	c0.5,1,0.3,1.4-0.6,1.8c-0.5,0.2-1,0.4-1.6,0.6c-3.2,1.3-3.3,1.4-4.6-1.8c-0.4-1.1-0.9-1-1.7-0.7c-4.1,1.8-8.3,3.6-12.5,5.4
	c-1.9,0.8-2.4,2.7-3.2,4.3C171.4,181.8,169.6,183.1,166.5,183.7z M185.1,158c-2.1,3.6-4.2,7.2-6.7,11.4c1.6-0.7,2.6-1.1,3.6-1.6
	c2-1.1,5.2-1.1,5.6-3.2c0.4-1.9-1.4-4.2-2.2-6.4C185.4,158.1,185.3,158.1,185.1,158z"/>
<path class="st2" d="M118.8,185.4c0.1,2.4-0.6,4.2-3.1,5.1c-2.8,1.1-5.5,2.6-8.2,3.7c-1.9,0.8-2.9,2-3,4.2c2.4-0.4,4.2-2.3,6.7-2.4
	l0,0c0,2.3-0.7,4.2-3.2,4.8c-0.7,0.2-1.3,0.7-2,0.9c-2.8,0.6-3.8,2.6-4,5.6c4.2-1.8,8.2-3.6,12.4-5.4c-0.2,2.9-1,4.9-4,5.9
	c-4.4,1.5-8.6,3.6-13.4,5.5c1.5-5.1,3.2-9.7,4.2-14.5c1-4.9,3.4-7.9,8.1-9.3C112.6,188.5,115.4,186.3,118.8,185.4L118.8,185.4z"/>
<path class="st2" d="M123.7,201.9c1.6-5.7,3-11.2,4.6-17.1c-2.7,1.2-5,2.2-7.6,3.4c0.3-2.7,0.9-4.5,3.6-5.7
	c5.8-2.4,11.4-5.3,17.3-8.1c-0.3,2.8-0.6,5.1-3.7,5.9c-4.3,1.1-6.8,3.7-7.3,8.4c-0.4,3.1-1.8,6.1-2.4,9.2
	C127.8,200.4,126.3,201.4,123.7,201.9z"/>
<path class="st5" d="M163.5,132.6c0.7,0.7-0.1,1.3-0.3,1.8c-2.1,5.1-4.3,10.2-6.1,15.6c4.3-3.2,8.5-6.5,12.8-9.7
	c0.5-0.4,0.9-1.5,1.8-0.5c-1.3,1.2-1.6,2.7-1.7,4.5c-0.3,4.6-1.9,8.8-5.5,12.1c-4.1,3.8-8.7,3-11.1-2c-3.1-6.2,0-16.9,5.8-20.5
	C160.5,133.1,161.9,132.5,163.5,132.6z M168.9,142.5c-4,3-7.6,5.7-11.2,8.5c-2.2,1.7-2,3.4,0.6,4.6c1.9,0.9,3.6,0.3,5.1-0.9
	C167.1,151.7,168.6,147.7,168.9,142.5z M155.1,149.8c2.1-5,4.2-9.8,6.3-14.9C156.8,137.2,153.9,144.1,155.1,149.8z"/>
<path class="st2" d="M77.7,221.4c-0.5-5.1-1-10.2-1.3-15.2c-0.1-2,2.1-1.5,3.3-2.8c0.4,4.1,0.7,7.8,1,11.6c0.9,0.1,0.9-0.8,1.2-1.2
	c2.7-4.6,5.5-9.2,8.1-13.8c0.8-1.4,1.7-2.2,3.7-2.6c-1.1,1.8-2,3.4-3,5c-3.4,5.7-6.8,11.4-10.1,17.1
	C79.9,220.6,79.1,221.3,77.7,221.4z"/>
<path class="st2" d="M89.4,216.6c2.1-6.9,4-13.4,6-19.9c0.4-1.4,2-1.3,3.4-2.2c-2.1,6.9-4,13.5-6,20C92.4,216,90.9,215.9,89.4,216.6
	z"/>
<path class="st5" d="M171.6,139.9c0.1-1.3,0.6-1.7,1.9-1.5C173.3,139.4,172.6,139.8,171.6,139.9z"/>
<path class="st5" d="M164.9,129.2c0.6,0.8,0.1,1.2-0.5,1.5C163.9,130,164.3,129.6,164.9,129.2z"/>
<path class="st5" d="M164.5,130.7c0.2,0.5,0.3,1-0.5,1C163.7,131.2,163.7,130.7,164.5,130.7z"/>
<path class="st5" d="M164,131.7c0.3,0.6,0.3,1-0.5,1C163.4,132.2,163.2,131.7,164,131.7z"/>
<path class="st2" d="M111.2,196c0-0.1,0-0.2,0-0.3c0.1,0,0.2,0.1,0.3,0.1C111.4,195.9,111.3,195.9,111.2,196
	C111.2,196,111.2,196,111.2,196z"/>
<path class="st2" d="M118.9,185.5c0.1-0.1,0.1-0.2,0.2-0.3c0,0.1,0.1,0.1,0.1,0.2C119,185.4,118.9,185.4,118.9,185.5
	C118.8,185.4,118.9,185.5,118.9,185.5z"/>
<path class="st5" d="M171.3,155.8c-0.2,0.1-0.4,0.3-0.5,0.3c-0.4-0.2-0.1-0.4,0-0.7C171,155.6,171.2,155.7,171.3,155.8z"/>
<path class="st2" d="M203.8,111.5c-0.4-1.5-1.2-2.1-2.9-2c-1.9,0.1-4,1.5-5.3-1.7c-0.4,1.7,0.6,2,1,2.5c0.5,0.6,1.4,1,0.5,1.9
	c-0.9,0.9-1.2-0.2-1.7-0.6c-0.9-0.8-1.7-1.7-2.5-2.6c-0.3-0.3-0.7-0.8-1.1,0l0,0c1.4-3.9,4-6.7,8.1-7.6c4.2-0.9,7.7,0.5,10.3,4
	c5.8,7.9,2.5,21.7-6.1,26.3c-5.2,2.8-10.7,1.2-13.7-4.1c-2.7-4.7-2.6-9.7-1.2-14.8c0.3-1.2,0.8-1.2,1.5-0.4c1.9,2.2,4.4,3.9,5.7,6.7
	c1.7,3.4,5.8,3.5,8,0.4c1.5-2.1,1.7-5.6,0.4-7.7C204.6,111.6,204.5,110.9,203.8,111.5L203.8,111.5z M190.2,114.1
	c-1.2,4.3-0.9,8,0.7,11.6c2.7,6.1,8.9,7.6,14.2,3.6c5.8-4.4,8.3-13.8,5.4-20.6c-2.9-6.9-9.7-8.4-15.2-3.2c2,2.4,2,2.4,5.3,2.3
	c0.4,0,0.8,0.1,1.2,0.2c5.2,1.1,7.1,8.2,3.4,12.6c-3,3.6-8,3.2-10.1-1C194,117.4,192.1,116,190.2,114.1z"/>
<path class="st2" d="M191.8,109.1c1.5,2.9,4.3,4.7,6.3,7.3c0.1,0.2,0.4,0.3,0.5,0.5c0.4,0.5,1.4,1,0.8,1.7c-0.7,0.8-1.3-0.2-1.7-0.6
	c-3.4-3.4-6.8-6.8-10.1-10.3c-1.2-1.3-1.7-1.8-2.6,0.3c-1.4,3.2-3.2,6.2-5.2,9.2c1.2-3.2,2.3-6.4,3.7-9.5c1-2.2,0.9-3.7-1.1-5.3
	c-1.3-1-2.4-2.4-3.5-3.6c-0.4-0.4-0.6-0.8-0.4-1.3c0.3-0.5,0.8-0.6,1.2-0.4c1.2,0.6,2.4,1.2,3.5,1.9c0.6,0.4-1.2,0.3-0.3,1.1
	C185.9,103.1,188.4,106.6,191.8,109.1C191.9,109.1,191.8,109.1,191.8,109.1z"/>
<path class="st2" d="M176.8,129.5c-0.1,0.1-0.2,0.2-0.2,0.1c-0.9-0.2-2.1,1.3-2.8-0.9c-0.5-1.5-3.1-1.7-4.9-2.5
	c1.4-1,0.8-2.1,0.5-3.3c-0.7-4.6-0.5-9.2,0.4-13.8c0.2-0.9,0.7-1.5,1.6-1.3c1.1,0.2,0.4,1,0.3,1.6c-0.3,2.8-0.5,5.7-1.1,8.5
	c-1.1,4.7,1.1,7.8,4.6,10.4c0.4,0.3,0.9,0.6,1.4,0.9C176.6,129.1,176.6,129.2,176.8,129.5z"/>
<path class="st2" d="M201.8,99.3c0.9-0.3,1.8-0.7,2.8-1.1c-1.6-0.3-3-0.1-5,0.1c7.7-3.7,17,4.5,16.7,13.3
	C214.8,103.5,209.8,99.6,201.8,99.3z"/>
<path class="st2" d="M188.9,100.7c-5-4.3-10.1-7.8-16.4-8.9c-0.4-0.1-0.8-0.1-0.7-0.7c0.2-0.7,0.6-0.8,1.3-0.6
	c2.3,0.5,4.4,1.3,6.5,2.3c2.9,1.4,5.5,3.2,8,5.2C188.4,98.6,189.2,99.2,188.9,100.7z"/>
<path class="st2" d="M190,74.4c-2.1-0.8-4.4,0.1-6.5-0.7c-0.9-0.3-1.9-0.7-1.8-1.9c0.1-1,1.3-0.8,2-0.9c0.9-0.2,1.9-0.3,2.8-0.2
	C189.3,71.1,189.9,71.8,190,74.4C189.9,74.5,190,74.4,190,74.4z"/>
<path class="st2" d="M161.3,99c0.3-0.5,0.9-0.5,1.2-0.3c2.8,1.9,6.1,2.6,9.1,4.1c1.2,0.6,1.8,1.4,1.3,2.9c-0.3,0.8-0.8,1.1-1.6,1.1
	c-0.9,0-0.6-0.7-0.7-1.2c-0.2-1.3-1.2-2.1-2.2-2.7C166,101.5,163.7,100.3,161.3,99z"/>
<path class="st2" d="M174.9,124.1c-2-3.9,0.8-6.4,1.8-9.2c0.2-0.7,0.8-0.4,1.2-0.3c0.5,0.2,0.4,0.6,0.2,1
	C177.1,118.3,176.1,121.1,174.9,124.1z"/>
<path class="st2" d="M163.4,141.1c1.2-2.3,2.3-4.7,3.5-7.1c1.3,0.6,2,1.6,2.8,2.7c-2.1,1.5-4.1,3-6.1,4.6
	C163.5,141.3,163.4,141.2,163.4,141.1z"/>
<path class="st2" d="M170.6,92.1c-0.3-1.1-0.6-1.7-1.9-1.2c-0.8,0.3-2,0.1-2.2-1.2c-0.1-0.9-1-0.9-1.5-1.4c2.2-1.6,4.4-0.8,6.1,0.5
	C172.1,89.5,170.9,90.9,170.6,92.1z"/>
<path class="st2" d="M166.7,82.9c-1.2,0.6-2.5,1.1-3.6,1.8c-1.3,0.8-1.3,0.9-2.5-0.4C162.5,83.3,164.6,82.9,166.7,82.9z"/>
<path class="st2" d="M203.8,111.5c0.3,2.1,2,4.2,0.1,6.3c0.3-1.9,0.3-3.8-0.9-5.6C202.3,111,203.9,112.2,203.8,111.5
	C203.8,111.5,203.8,111.5,203.8,111.5z"/>
<path class="st2" d="M163.6,141.4c-0.1,0.2-0.2,0.5-0.4,0.3c-0.2-0.2,0-0.4,0.2-0.5C163.4,141.2,163.5,141.3,163.6,141.4z"/>
<path class="st1" d="M181.5,265.2c1.3-6.5,2.5-12.7,3.8-18.9c0.2-0.9,0.8-1.1,1.6-1.2c5.3-1,10.5-2.2,15.7-3
	c6.8-1.1,11.1,3.7,9.4,10.4c-1.4,5.5-5.9,9.6-11.5,10.4c-5.8,0.8-11.6,1.5-17.3,2.3C182.7,265.1,182.3,265.1,181.5,265.2z"/>
<path class="st1" d="M190.9,218.4c0.9-4.5,1.7-8.4,2.4-12.3c0.3-1.4,0.8-2.1,2.3-2.6c4.5-1.3,8.8-3.3,13.4-4.3
	c4.3-0.9,6.3,1.1,5.5,5.3c-0.8,3.9-3,6.9-6.4,8.4C202.7,215.4,196.9,216.5,190.9,218.4z"/>
<path class="st1" d="M80.4,253.8c-0.1,0.1-0.2,0.1-0.3,0.2c0-0.1,0-0.3,0-0.4c0-0.1,0.1-0.1,0.1-0.2
	C80.3,253.5,80.4,253.6,80.4,253.8z"/>
<path class="st1" d="M206.4,287.7c1.3,0,2.5,0,3.8,0c1.1,0,1.6,0.5,1.7,1.5c0,1.1-0.5,1.8-1.7,1.8c-2.6,0-5.2-0.1-7.9,0
	c-1.4,0-1.3-0.8-1.3-1.7c0-0.9,0-1.7,1.3-1.6C203.7,287.8,205.1,287.7,206.4,287.7z"/>
<path class="st1" d="M185.1,158c0.3,0.1,0.4,0.1,0.4,0.2c0.8,2.1,2.6,4.5,2.2,6.4c-0.4,2-3.7,2.1-5.6,3.2c-1,0.5-2,0.9-3.6,1.6
	C180.8,165.2,183,161.6,185.1,158z"/>
<path class="st0" d="M168.9,142.5c-0.3,5.1-1.8,9.2-5.5,12.2c-1.5,1.2-3.2,1.8-5.1,0.9c-2.6-1.3-2.8-2.9-0.6-4.6
	C161.3,148.3,164.9,145.5,168.9,142.5z"/>
<path class="st0" d="M155.1,149.8c-1.2-5.7,1.7-12.6,6.3-14.9C159.3,140,157.2,144.7,155.1,149.8z"/>
<path class="st0" d="M190.2,114.1c1.9,1.9,3.7,3.3,4.9,5.5c2.1,4.2,7.1,4.6,10.1,1c3.7-4.4,1.7-11.5-3.4-12.6
	c-0.4-0.1-0.8-0.2-1.2-0.2c-3.3,0.1-3.3,0.1-5.3-2.3c5.5-5.2,12.3-3.7,15.2,3.2c2.8,6.8,0.4,16.2-5.4,20.6
	c-5.3,4.1-11.5,2.5-14.2-3.6C189.3,122.1,189.1,118.4,190.2,114.1z"/>
</svg>
