<?xml version="1.0" encoding="utf-8"?>
<!-- Generator: Adobe Illustrator 19.0.0, SVG Export Plug-In . SVG Version: 6.00 Build 0)  -->
<svg version="1.1" id="Layer_1" xmlns="http://www.w3.org/2000/svg" xmlns:xlink="http://www.w3.org/1999/xlink" x="0px" y="0px"
	 viewBox="-356.3 218.6 208.6 124.5" style="enable-background:new -356.3 218.6 208.6 124.5;" xml:space="preserve">
<style type="text/css">
	.st0{fill:#48484A;}
</style>
<path class="st0" d="M-181.3,230.4h-169.1c-3.3,0-5.9-2.7-5.9-5.9c0-3.3,2.7-5.9,5.9-5.9h169.1c3.3,0,5.9,2.7,5.9,5.9
	C-175.4,227.7-178.1,230.4-181.3,230.4z"/>
<path class="st0" d="M-153.7,286.8h-169c-3.3,0-5.9-2.7-5.9-5.9c0-3.3,2.7-5.9,5.9-5.9h169.1c3.3,0,5.9,2.7,5.9,5.9
	C-147.7,284.1-150.4,286.8-153.7,286.8z"/>
<path class="st0" d="M-181.3,343.1h-169.1c-3.3,0-5.9-2.7-5.9-5.9c0-3.3,2.7-5.9,5.9-5.9h169.1c3.3,0,5.9,2.7,5.9,5.9
	C-175.4,340.5-178.1,343.1-181.3,343.1z"/>
</svg>
