<?xml version="1.0" encoding="utf-8"?>
<!-- Generator: Adobe Illustrator 19.0.0, SVG Export Plug-In . SVG Version: 6.00 Build 0)  -->
<svg version="1.1" id="Layer_1" xmlns="http://www.w3.org/2000/svg" xmlns:xlink="http://www.w3.org/1999/xlink" x="0px" y="0px"
	 viewBox="-272 166.1 512 511.8" style="enable-background:new -272 166.1 512 511.8;" xml:space="preserve">
<style type="text/css">
	.st0{fill:#777372;}
</style>
<path class="st0" d="M21.7,318.7c2.5-6.2-0.6-13.2-6.8-15.7c-18.4-7.3-37.8-11-57.8-11c-86.5,0-156.8,70.3-156.8,156.8
	s70.3,156.8,156.8,156.8s156.8-70.3,156.8-156.8c0-19.9-3.7-39.3-10.9-57.7c-2.5-6.2-9.5-9.2-15.7-6.8c-6.2,2.5-9.2,9.5-6.8,15.7
	c6.1,15.5,9.3,31.9,9.3,48.8c0,73.1-59.5,132.6-132.6,132.6s-132.7-59.5-132.7-132.6S-116,316.1-42.8,316.1
	c16.9,0,33.3,3.1,48.9,9.3C12.2,327.9,19.2,324.9,21.7,318.7z"/>
<path class="st0" d="M162.6,377.3c-6.4,1.8-10.1,8.5-8.3,14.9c5.2,18.3,7.9,37.3,7.9,56.5c0,113-92,205-205,205s-205-92-205-205
	s92-205,205-205c19.2,0,38.3,2.7,56.6,7.9c6.4,1.8,13.1-1.9,14.9-8.3s-1.9-13.1-8.3-14.9c-20.5-5.9-41.8-8.9-63.3-8.9
	C-169.2,219.6-272,322.4-272,448.8s102.8,229.1,229.2,229.1s229.2-102.8,229.2-229.2c0-21.5-3-42.7-8.8-63.2
	C175.7,379.2,169,375.5,162.6,377.3z"/>
<path class="st0" d="M-42.8,388.5c1.9,0,3.7,0.1,5.4,0.2c6.6,0.6,12.5-4.3,13.1-10.9s-4.3-12.5-10.9-13.1c-2.5-0.2-5-0.3-7.6-0.3
	c-46.6,0-84.4,37.9-84.4,84.4c0,46.6,37.9,84.4,84.4,84.4c46.6,0,84.4-37.9,84.4-84.4c0-2.5-0.1-4.9-0.3-7.4
	c-0.6-6.6-6.5-11.5-13.1-11c-6.6,0.6-11.6,6.5-11,13.1c0.2,1.7,0.2,3.5,0.2,5.2c0,33.2-27,60.3-60.3,60.3c-33.2,0-60.3-27-60.3-60.3
	C-103.1,415.5-76.1,388.5-42.8,388.5z"/>
<path class="st0" d="M238.1,247.3c-3.8-9.1-12.5-14.9-22.3-14.9h-42.1v-42.1c0-9.8-5.9-18.6-14.9-22.3c-9.1-3.8-19.4-1.7-26.3,5.2
	l-70.4,70.4c-6.8,6.8-10.6,15.9-10.6,25.6v68.4l-98.2,98.2c-4.7,4.7-4.7,12.4,0,17.1c2.4,2.4,5.5,3.5,8.5,3.5s6.2-1.2,8.5-3.5
	l98.2-98.2h68.4c9.7,0,18.8-3.8,25.6-10.6l70.4-70.4C239.8,266.7,241.9,256.3,238.1,247.3z M79.2,260.6l70.4-70.4v49.2l-73.9,73.9
	v-44.2C75.6,265.9,76.9,262.9,79.2,260.6z M145.5,326.9c-2.2,2.2-5.4,3.5-8.5,3.5H92.8l73.9-73.9h49.2L145.5,326.9z"/>
</svg>
