<?xml version="1.0" encoding="utf-8"?>
<!-- Generator: Adobe Illustrator 21.0.0, SVG Export Plug-In . SVG Version: 6.00 Build 0)  -->
<svg version="1.1" id="Layer_1" xmlns="http://www.w3.org/2000/svg" xmlns:xlink="http://www.w3.org/1999/xlink" x="0px" y="0px"
	 viewBox="0 0 1000 192.9" style="enable-background:new 0 0 1000 192.9;" xml:space="preserve">
<style type="text/css">
	.st0{fill:#F48120;}
	.st1{fill:#A6A8AB;}
</style>
<g>
	<g>
		<path class="st0" d="M113.9,130.5V85.1c0-9.1,1.3-16.8,4-23c2.7-6.2,6.4-11.2,11.1-14.9c4.5-3.5,9.7-6.1,15.6-7.7
			c6-1.6,12.1-2.5,18.5-2.5c0.5,0,1.1,0,1.8,0c0.7,0,1.3,0,1.8,0v12.3c0,0,0,5.4-4.6,9c-2.8,2.2-5.4,2.6-6.3,2.7
			c-5.4,0.6-9.5,3-12.3,5.8c-3.3,3.3-4.9,8.4-4.9,15.5v48.2H113.9z"/>
		<path class="st0" d="M233.8,101.8h17.6c-2.6,9.8-7.5,17.3-14.8,22.5c-7.3,5.4-16.4,8.1-27.4,8.1c-13.4,0-23.8-4.3-31.3-13
			c-7.5-8.4-11.3-20.5-11.3-36.2c0-15,3.6-26.7,10.9-35.2c7.5-8.7,17.9-13,31.3-13c14.1,0,25,4.2,32.7,12.7
			c7.5,8.7,11.3,20.7,11.3,36.2c0,0.9,0,1.8,0,2.5c0,0.7,0,1.2,0,1.4c0,1.2-0.1,2-0.4,2.5h-60.8c0.2,7.3,2,12.7,5.3,16.2
			c3,3.8,7.6,5.6,13.7,5.6c4,0,7.4-0.8,10.2-2.5c0.9-0.5,2.4-1.5,3.9-3.2C225.7,105.2,228.4,102.2,233.8,101.8z M191.7,74.4h35.9
			c-0.5-6.3-2.1-11-4.9-14.1c-3.1-3.3-7.4-4.9-13-4.9c-5.2,0-9.4,1.6-12.7,4.9C193.6,63.6,191.9,68.3,191.7,74.4z"/>
		<path class="st0" d="M579.1,101.8h17.6c-2.6,9.8-7.5,17.3-14.8,22.5c-7.3,5.4-16.4,8.1-27.4,8.1c-13.4,0-23.8-4.3-31.3-13
			c-7.5-8.4-11.3-20.5-11.3-36.2c0-15,3.6-26.7,10.9-35.2c7.5-8.7,17.9-13,31.3-13c14.1,0,25,4.2,32.7,12.7
			c7.5,8.7,11.3,20.7,11.3,36.2c0,0.9,0,1.8,0,2.5c0,0.7,0,1.2,0,1.4c0,1.2-0.1,2-0.4,2.5h-60.8c0.2,7.3,2,12.7,5.3,16.2
			c3,3.8,7.6,5.6,13.7,5.6c4,0,7.4-0.8,10.2-2.5c0.9-0.5,2.4-1.5,3.9-3.2C570.9,105.2,573.6,102.2,579.1,101.8z M536.9,74.4h35.9
			c-0.5-6.3-2.1-11-4.9-14.1c-3-3.3-7.4-4.9-13-4.9c-5.2,0-9.4,1.6-12.7,4.9C538.8,63.6,537.1,68.3,536.9,74.4z"/>
		<path class="st0" d="M320.7,126.8c-4.9,2.6-10.1,4.2-15.6,4.7c-5.5,0.6-10.4,0.9-14.6,0.9c-8.4,0-15.8-2.3-22.2-6.9
			c-6.3-4.6-9.5-12.1-9.5-22.7c0-9.8,2.9-16.9,8.6-21.1c5.7-4.2,13.1-7,22-8.4c1.2,0,2.6-0.2,4.2-0.5c1.6-0.4,3.5-0.6,5.6-0.9
			c10.3-1.4,15.5-4.5,15.5-9.1c0-3.5-1.8-5.8-5.4-6.9c-3.6-1.1-7-1.6-10-1.6c-3.3,0-6.2,0.5-8.8,1.4c-1.2,0.4-2.3,1.1-3.2,1.9
			c-3.8,3.6-8.5,3.4-8.5,3.4h-17.5c0.9-7.3,4.2-13.2,9.8-17.9c6.3-5.4,15.3-8.1,27.1-8.1c13.1,0,23,2.2,29.5,6.7
			c6.8,4.7,10.2,11.3,10.2,19.7v32c0,9.4-1.7,16.7-5.1,22C329.4,120.6,325.4,124.5,320.7,126.8z M315.1,83.5
			c-3.3,1.6-7.9,3.2-13.7,4.6l-8.1,1.8c-4.2,1.2-7.4,2.6-9.1,4.6c-1.6,2.6-2.5,5.2-2.5,7.7c0,3.5,1.1,6.3,3.2,8.4
			c2.1,1.9,5.2,2.8,9.1,2.8c6.6,0,11.7-1.9,15.5-5.6c3.7-3.7,5.6-8.9,5.6-15.5V83.5z"/>
		<path class="st0" d="M384.6,130.5c-7.3,0-22.4,0-25.1,0c-9-0.7-13.6-6.8-13.6-17.6V9.5h12.7c3,0,5.7,1.2,8.1,3.5
			c2.3,2.3,3.5,5.2,3.5,8.4v15.8h14.4v4.9c0,3.5-1.2,6.4-3.5,8.6c-2.3,2.2-5.2,3.3-8.4,3.3h-2.5v52c0,4,2.3,6,7,6h7.4V130.5z"/>
		<path class="st0" d="M392.6,37h12.7c3.3,0,6.1,1.2,8.4,3.5c2.3,2.3,3.5,5.2,3.5,8.4v81.6h-24.6V37z"/>
		<path class="st0" d="M484,130.5h-32.7L423.2,37h16.6c0,0,8.8-0.3,11.9,8.9c-0.5-1.9,16.1,56.9,16.1,56.9l16.5-57.3
			c1.9-5.6,5.6-8.4,11.3-8.4h18.3L484,130.5z"/>
		<path class="st0" d="M666.7,63.3c-3.5-4.9-8.3-7.4-14.4-7.4c-6.6,0-11.6,2.3-15.1,7c-3.5,4.7-5.3,11.1-5.3,19.3v48.2H608V6h12
			c3.3,0,6.1,1.2,8.4,3.5c2.3,2.3,3.5,5.2,3.5,8.4v31.3c4.2-7,10.2-11.5,17.9-13.4c7.7-1.9,15.1-1.4,22.2,1.4
			c6.6,2.8,12.1,7.3,16.5,13.4c4.5,6.1,6.7,14.5,6.7,25.3v54.5h-23.6V82c0-3.5-0.3-6.7-0.9-9.7C670.2,69.4,668.8,66.4,666.7,63.3z"
			/>
		<path class="st0" d="M782.8,37v54.9c0,16.6-4.3,27.6-13,32.7c-8.7,5.2-18.2,7.7-28.5,7.7c-10.1-0.5-19.3-3.3-27.6-8.4
			c-8.3-5.2-12.5-15.8-12.5-32V37h12.2c0,0,5-0.1,8.8,3.7c3.8,3.8,3.6,8.6,3.6,8.6v47.5c0,5.6,1.6,9.7,4.9,12.3
			c3.3,2.6,7,3.9,11.3,3.9c4.2,0,8-1.3,11.4-3.9c3.4-2.6,5.1-6.7,5.1-12.3V48.9c0-3.3,1.1-6.1,3.3-8.4c2.2-2.3,5.1-3.5,8.6-3.5
			H782.8z"/>
		<path class="st0" d="M788.8,130.5V75.6c0-16.6,4.3-27.6,13-32.7c8.7-5.2,18.2-7.7,28.5-7.7c10.1,0.5,19.3,3.3,27.6,8.4
			c8.3,5.2,12.5,15.8,12.5,32v54.9h-12.2c0,0-5,0.1-8.8-3.7c-3.8-3.8-3.6-8.6-3.6-8.6V70.7c0-5.6-1.6-9.7-4.9-12.3
			c-3.3-2.6-7-3.9-11.3-3.9c-4.2,0-8,1.3-11.4,3.9c-3.4,2.6-5.1,6.7-5.1,12.3v47.8c0,3.3-1.1,6.1-3.3,8.4c-2.2,2.3-5.1,3.5-8.6,3.5
			H788.8z"/>
		<path class="st0" d="M915,130.5c-7.8,0-21.4,0-25.1,0c-9-0.7-13.5-6.8-13.5-17.6V9.5H889c3,0,5.7,1.2,8.1,3.5
			c2.3,2.3,3.5,5.2,3.5,8.4v15.8H915v4.9c0,3.5-1.2,6.4-3.5,8.6c-2.3,2.2-5.2,3.3-8.4,3.3h-2.5v52c0,4,2.3,6,7,6h7.4V130.5z"/>
		<path class="st0" d="M917,99.5h14.2c0,0,7.3-0.4,11.5,6.6c0.9,1.5,2,2.8,3.5,3.9c3.5,2.3,8.2,3.5,14.1,3.5c4.2,0,7.8-0.8,10.9-2.5
			c2.8-1.6,4.2-3.9,4.2-6.7c0-4.2-4.9-7.4-14.8-9.5c-4.2-0.7-7.4-1.4-9.5-2.1c-12.4-3-20.7-6.7-25-10.9c-4.7-4.2-7-9.8-7-16.9
			c0-8.9,3.4-16.3,10.2-22.2c7-5.4,16.2-8.1,27.4-8.1c12.2,0,21.9,2.7,29.2,8.1c6.8,5.9,10.4,13.5,10.9,22.9h-15.1
			c-4.5,0-7.9-2-10.2-6c-0.9-0.9-1.5-1.8-2.8-2.8c-3-2.2-6.7-3.2-11.6-3.2c-4.7,0-8.2,0.7-10.6,2.1c-2.1,1.4-3.2,3.5-3.2,6.3
			c0,3.8,6.1,6.9,18.3,9.5c1.9,0.5,4.2,0.9,6.7,1.4c12,3.1,20.3,6.6,25,10.5c4.5,4.2,6.7,9.8,6.7,16.9c0,10.3-3.8,18.3-11.3,23.9
			c-7,5.2-17.6,7.7-31.6,7.7c-13.4,0-23.3-2.7-29.9-8.1c-6.8-5.4-10.2-13.2-10.2-23.6V99.5z"/>
		<circle class="st0" cx="404.9" cy="18.5" r="13.4"/>
		<path class="st0" d="M82.8,96.1c-1.7,3.6-3.9,6.4-6.6,8.5c-4.9,3.7-11.1,5.6-18.6,5.6c-10.8,0-18.9-3.6-24.3-10.9
			c-5.6-7-8.4-17.1-8.4-30.2c0-13.6,2.8-23.9,8.4-30.9c5.9-7,14.2-10.5,25-10.5c7.7,0,13.9,1.8,18.6,5.3c2.3,2.3,4.3,5.1,5.9,8.1
			c2.3,4.9,6.4,7.3,12,7.3H110c-1.2-13.6-6.1-24.1-14.8-31.6C86,9,73.7,5.1,58.3,5.1c-19,0-33.5,5.5-43.6,16.5
			C4.8,32.2-0.1,48-0.1,69.1c0,20.6,4.8,36.2,14.4,46.8c9.6,11,23.6,16.5,41.8,16.5c15.7,0,29.2-3.9,38.8-11.6
			c9.1-7.7,13.4-18.3,14.8-31.6H93.9C89,89.2,84.8,92,82.8,96.1z"/>
	</g>
	<g>
		<path class="st1" d="M394.8,155.9v3.5h-2.2v-3.5H394.8z M394.8,162.8v17.9h-2.2v-17.9H394.8z"/>
		<path class="st1" d="M402.8,162.8v3.1h0.1c0.4-1.1,1.2-2,2.2-2.6c1.1-0.7,2.2-1,3.5-1c1.2,0,2.3,0.2,3.1,0.5
			c0.8,0.3,1.5,0.8,2,1.4c0.5,0.6,0.9,1.3,1.1,2.2c0.2,0.9,0.3,1.8,0.3,2.9v11.5H413v-11.2c0-0.8-0.1-1.5-0.2-2.1
			c-0.1-0.7-0.4-1.2-0.7-1.7c-0.3-0.5-0.8-0.9-1.4-1.1c-0.6-0.3-1.3-0.4-2.2-0.4c-0.9,0-1.7,0.2-2.3,0.5c-0.7,0.3-1.3,0.7-1.7,1.3
			c-0.5,0.5-0.8,1.2-1.1,1.9c-0.3,0.7-0.4,1.6-0.4,2.4v10.4h-2.2v-17.9H402.8z"/>
		<path class="st1" d="M428.1,162.8v1.8h-3.6v12.1c0,0.7,0.1,1.3,0.3,1.7c0.2,0.4,0.7,0.6,1.5,0.7c0.6,0,1.2,0,1.9-0.1v1.8
			c-0.3,0-0.6,0-1,0c-0.3,0-0.6,0-1,0c-1.5,0-2.5-0.3-3.1-0.8c-0.6-0.6-0.9-1.6-0.8-3.1v-12.2h-3.1v-1.8h3.1v-5.4h2.2v5.4H428.1z"/>
		<path class="st1" d="M434.6,174.7c0.2,0.8,0.6,1.6,1.1,2.3c0.5,0.7,1.1,1.2,1.8,1.7c0.7,0.4,1.6,0.7,2.7,0.7
			c1.6,0,2.8-0.4,3.7-1.2c0.9-0.8,1.5-1.9,1.9-3.3h2.2c-0.5,2-1.3,3.6-2.6,4.7c-1.2,1.1-3,1.7-5.2,1.7c-1.4,0-2.6-0.2-3.7-0.7
			c-1-0.5-1.9-1.2-2.5-2c-0.6-0.9-1.1-1.9-1.4-3c-0.3-1.1-0.5-2.3-0.5-3.6c0-1.2,0.2-2.3,0.5-3.5c0.3-1.1,0.8-2.1,1.4-3
			c0.6-0.9,1.5-1.6,2.5-2.1c1-0.5,2.2-0.8,3.7-0.8c1.4,0,2.7,0.3,3.7,0.9c1,0.6,1.8,1.3,2.5,2.3c0.6,0.9,1.1,2,1.4,3.2
			c0.3,1.2,0.4,2.4,0.3,3.7h-13.8C434.3,173.1,434.4,173.9,434.6,174.7z M445.4,168.1c-0.3-0.8-0.6-1.4-1.1-2
			c-0.5-0.6-1.1-1.1-1.8-1.4c-0.7-0.4-1.5-0.5-2.4-0.5c-0.9,0-1.7,0.2-2.4,0.5c-0.7,0.4-1.3,0.8-1.8,1.4c-0.5,0.6-0.9,1.3-1.2,2
			c-0.3,0.8-0.5,1.6-0.6,2.4h11.6C445.9,169.6,445.7,168.8,445.4,168.1z"/>
		<path class="st1" d="M467.4,182.8c-0.3,1.1-0.7,2-1.4,2.7c-0.6,0.7-1.4,1.3-2.4,1.7c-1,0.4-2.2,0.6-3.7,0.6
			c-0.9,0-1.8-0.1-2.6-0.3c-0.9-0.2-1.6-0.5-2.3-1c-0.7-0.4-1.2-1-1.7-1.7c-0.4-0.7-0.7-1.5-0.8-2.4h2.2c0.1,0.7,0.3,1.2,0.7,1.7
			c0.3,0.5,0.7,0.8,1.2,1.1c0.5,0.3,1,0.5,1.6,0.6c0.6,0.1,1.2,0.2,1.8,0.2c2,0,3.5-0.6,4.4-1.7c0.9-1.2,1.4-2.8,1.4-5v-2.4h-0.1
			c-0.5,1.1-1.3,2-2.2,2.7c-1,0.7-2.1,1-3.5,1c-1.4,0-2.7-0.2-3.7-0.7c-1-0.5-1.9-1.1-2.5-2c-0.7-0.8-1.1-1.8-1.4-2.9
			c-0.3-1.1-0.5-2.3-0.5-3.6c0-1.2,0.2-2.4,0.5-3.5c0.4-1.1,0.9-2.1,1.6-2.9c0.7-0.8,1.5-1.5,2.5-1.9c1-0.5,2.2-0.7,3.4-0.7
			c0.7,0,1.3,0.1,1.9,0.3c0.6,0.2,1.1,0.4,1.6,0.8c0.5,0.3,0.9,0.7,1.3,1.2c0.4,0.4,0.7,0.9,0.9,1.4h0.1v-3.1h2.2v16.4
			C467.8,180.5,467.7,181.7,467.4,182.8z M462.4,178c0.7-0.4,1.3-0.9,1.8-1.6c0.5-0.7,0.8-1.4,1.1-2.3c0.2-0.9,0.4-1.7,0.4-2.6
			c0-0.9-0.1-1.8-0.3-2.6c-0.2-0.9-0.5-1.7-1-2.4c-0.5-0.7-1.1-1.3-1.8-1.7c-0.7-0.4-1.6-0.7-2.7-0.7c-1,0-1.9,0.2-2.7,0.6
			c-0.7,0.4-1.4,1-1.8,1.7c-0.5,0.7-0.8,1.5-1.1,2.4c-0.2,0.9-0.3,1.8-0.3,2.7c0,0.9,0.1,1.8,0.3,2.6c0.2,0.9,0.6,1.6,1.1,2.3
			c0.5,0.7,1.1,1.2,1.8,1.6c0.7,0.4,1.6,0.6,2.6,0.6C460.9,178.6,461.7,178.4,462.4,178z"/>
		<path class="st1" d="M475.8,162.8v4.2h0.1c0.6-1.5,1.4-2.6,2.6-3.4c1.2-0.8,2.6-1.1,4.2-1.1v2.2c-1,0-1.9,0.1-2.7,0.4
			c-0.8,0.3-1.5,0.8-2.1,1.3c-0.6,0.6-1,1.3-1.4,2.1c-0.3,0.8-0.5,1.7-0.5,2.6v9.5h-2.2v-17.9H475.8z"/>
		<path class="st1" d="M486.8,165.5c0.4-0.8,0.9-1.4,1.5-1.9c0.6-0.5,1.4-0.8,2.2-1.1c0.9-0.2,1.8-0.3,2.8-0.3
			c0.8,0,1.6,0.1,2.4,0.2c0.8,0.1,1.5,0.4,2.1,0.8c0.6,0.4,1.1,1,1.5,1.8c0.4,0.8,0.6,1.7,0.6,2.9v9.5c0,0.9,0.4,1.3,1.3,1.3
			c0.3,0,0.5,0,0.7-0.1v1.8c-0.3,0-0.5,0.1-0.7,0.1c-0.2,0-0.4,0-0.7,0c-0.6,0-1-0.1-1.3-0.2c-0.3-0.1-0.6-0.4-0.8-0.6
			c-0.2-0.3-0.3-0.6-0.4-1c-0.1-0.4-0.1-0.8-0.1-1.3h-0.1c-0.4,0.6-0.8,1.1-1.2,1.5c-0.4,0.4-0.9,0.8-1.4,1.1
			c-0.5,0.3-1.1,0.5-1.7,0.7c-0.6,0.2-1.4,0.2-2.3,0.2c-0.8,0-1.6-0.1-2.3-0.3c-0.7-0.2-1.4-0.5-1.9-0.9c-0.5-0.4-1-1-1.3-1.6
			c-0.3-0.7-0.5-1.4-0.5-2.3c0-1.2,0.3-2.2,0.8-2.9c0.6-0.7,1.3-1.2,2.2-1.6c0.9-0.4,1.9-0.6,3.1-0.8c1.1-0.1,2.3-0.3,3.5-0.4
			c0.5,0,0.9-0.1,1.2-0.2c0.3-0.1,0.6-0.2,0.9-0.4c0.2-0.2,0.4-0.4,0.5-0.7c0.1-0.3,0.2-0.7,0.2-1.2c0-0.7-0.1-1.3-0.4-1.8
			c-0.2-0.5-0.6-0.9-1-1.1c-0.4-0.3-0.9-0.5-1.5-0.6c-0.6-0.1-1.2-0.2-1.8-0.2c-1.4,0-2.5,0.3-3.4,1c-0.9,0.7-1.3,1.7-1.4,3.2h-2.2
			C486.3,167.2,486.5,166.3,486.8,165.5z M497.8,170.9c-0.1,0.3-0.4,0.4-0.8,0.6c-0.4,0.1-0.7,0.2-1,0.2c-0.9,0.2-1.9,0.3-2.9,0.4
			c-1,0.1-1.9,0.3-2.7,0.6c-0.8,0.3-1.5,0.6-2,1.1c-0.5,0.5-0.8,1.1-0.8,2c0,0.6,0.1,1,0.3,1.5c0.2,0.4,0.5,0.8,0.9,1.1
			c0.4,0.3,0.8,0.6,1.3,0.7c0.5,0.2,1,0.2,1.5,0.2c0.8,0,1.6-0.1,2.4-0.4c0.8-0.3,1.4-0.6,2-1.1c0.6-0.5,1-1.1,1.4-1.8
			c0.3-0.7,0.5-1.5,0.5-2.4L497.8,170.9L497.8,170.9z"/>
		<path class="st1" d="M513.2,162.8v1.8h-3.6v12.1c0,0.7,0.1,1.3,0.3,1.7c0.2,0.4,0.7,0.6,1.5,0.7c0.6,0,1.2,0,1.9-0.1v1.8
			c-0.3,0-0.6,0-1,0c-0.3,0-0.6,0-1,0c-1.5,0-2.5-0.3-3-0.8c-0.6-0.6-0.9-1.6-0.8-3.1v-12.2h-3.1v-1.8h3.1v-5.4h2.2v5.4H513.2z"/>
		<path class="st1" d="M519.7,174.7c0.2,0.8,0.6,1.6,1.1,2.3c0.5,0.7,1.1,1.2,1.8,1.7c0.7,0.4,1.6,0.7,2.7,0.7
			c1.6,0,2.8-0.4,3.7-1.2c0.9-0.8,1.5-1.9,1.9-3.3h2.2c-0.5,2-1.3,3.6-2.5,4.7c-1.2,1.1-3,1.7-5.2,1.7c-1.4,0-2.6-0.2-3.7-0.7
			c-1-0.5-1.9-1.2-2.5-2c-0.6-0.9-1.1-1.9-1.4-3c-0.3-1.1-0.5-2.3-0.5-3.6c0-1.2,0.2-2.3,0.5-3.5c0.3-1.1,0.8-2.1,1.4-3
			c0.6-0.9,1.5-1.6,2.5-2.1c1-0.5,2.3-0.8,3.7-0.8c1.4,0,2.7,0.3,3.7,0.9c1,0.6,1.8,1.3,2.5,2.3c0.6,0.9,1.1,2,1.4,3.2
			c0.3,1.2,0.4,2.4,0.3,3.7h-13.8C519.4,173.1,519.5,173.9,519.7,174.7z M530.5,168.1c-0.3-0.8-0.6-1.4-1.1-2
			c-0.5-0.6-1.1-1.1-1.8-1.4c-0.7-0.4-1.5-0.5-2.4-0.5c-0.9,0-1.7,0.2-2.4,0.5c-0.7,0.4-1.3,0.8-1.8,1.4c-0.5,0.6-0.9,1.3-1.2,2
			c-0.3,0.8-0.5,1.6-0.6,2.4H531C530.9,169.6,530.8,168.8,530.5,168.1z"/>
		<path class="st1" d="M551.5,180.6v-3.4h-0.1c-0.2,0.6-0.6,1.1-1,1.6c-0.5,0.5-1,0.9-1.5,1.2c-0.6,0.3-1.2,0.6-1.9,0.8
			c-0.7,0.2-1.3,0.3-2,0.3c-1.4,0-2.5-0.2-3.6-0.7c-1-0.5-1.8-1.2-2.5-2c-0.7-0.9-1.2-1.9-1.5-3c-0.3-1.1-0.5-2.3-0.5-3.6
			c0-1.3,0.2-2.5,0.5-3.6c0.3-1.1,0.8-2.1,1.5-3c0.7-0.9,1.5-1.6,2.5-2.1c1-0.5,2.2-0.8,3.6-0.8c0.7,0,1.3,0.1,2,0.2
			c0.6,0.2,1.2,0.4,1.8,0.7c0.6,0.3,1,0.7,1.5,1.2c0.4,0.5,0.8,1.1,1,1.7h0.1v-10.3h2.2v24.7H551.5z M539.6,174.5
			c0.2,0.9,0.6,1.7,1,2.4c0.5,0.7,1.1,1.3,1.8,1.8c0.7,0.4,1.6,0.7,2.7,0.7c1.2,0,2.1-0.2,2.9-0.7c0.8-0.5,1.4-1,1.9-1.8
			c0.5-0.7,0.9-1.5,1.1-2.4c0.2-0.9,0.3-1.8,0.3-2.8c0-0.9-0.1-1.8-0.3-2.8c-0.2-0.9-0.6-1.7-1.1-2.4c-0.5-0.7-1.1-1.3-1.9-1.7
			s-1.8-0.7-2.9-0.7c-1,0-1.9,0.2-2.7,0.7c-0.7,0.5-1.3,1-1.8,1.7c-0.5,0.7-0.8,1.5-1,2.4c-0.2,0.9-0.3,1.8-0.3,2.8
			C539.2,172.6,539.4,173.5,539.6,174.5z"/>
		<path class="st1" d="M572.8,162.8v3h0.1c0.6-1.1,1.3-2,2.3-2.6c0.9-0.6,2.1-0.9,3.6-0.9c1.2,0,2.2,0.3,3.2,0.9
			c1,0.6,1.6,1.5,1.9,2.6c0.5-1.2,1.3-2.1,2.4-2.6c1-0.6,2.1-0.9,3.3-0.9c3.9,0,5.9,2.1,5.9,6.3v12.1h-2.2v-12
			c0-1.5-0.3-2.6-0.9-3.4c-0.6-0.8-1.7-1.2-3.3-1.2c-1,0-1.7,0.2-2.4,0.5c-0.6,0.4-1.1,0.8-1.5,1.4c-0.4,0.6-0.6,1.3-0.8,2.1
			c-0.2,0.8-0.2,1.6-0.2,2.4v10.1h-2.2v-12.1c0-0.6-0.1-1.2-0.2-1.7c-0.1-0.5-0.3-1-0.6-1.4c-0.3-0.4-0.7-0.7-1.2-1
			c-0.5-0.2-1.1-0.3-1.8-0.3c-0.9,0-1.7,0.2-2.4,0.5c-0.7,0.3-1.2,0.8-1.7,1.4c-0.4,0.6-0.7,1.3-1,2.1c-0.2,0.8-0.3,1.7-0.3,2.6v10
			h-2.2v-17.9H572.8z"/>
		<path class="st1" d="M601.9,165.5c0.4-0.8,0.9-1.4,1.5-1.9c0.6-0.5,1.4-0.8,2.2-1.1c0.9-0.2,1.8-0.3,2.8-0.3
			c0.8,0,1.6,0.1,2.4,0.2c0.8,0.1,1.5,0.4,2.1,0.8c0.6,0.4,1.1,1,1.5,1.8c0.4,0.8,0.6,1.7,0.6,2.9v9.5c0,0.9,0.4,1.3,1.3,1.3
			c0.3,0,0.5,0,0.7-0.1v1.8c-0.3,0-0.5,0.1-0.7,0.1c-0.2,0-0.4,0-0.7,0c-0.6,0-1-0.1-1.3-0.2c-0.3-0.1-0.6-0.4-0.8-0.6
			c-0.2-0.3-0.3-0.6-0.4-1c-0.1-0.4-0.1-0.8-0.1-1.3H613c-0.4,0.6-0.8,1.1-1.2,1.5c-0.4,0.4-0.9,0.8-1.4,1.1
			c-0.5,0.3-1.1,0.5-1.7,0.7c-0.6,0.2-1.4,0.2-2.3,0.2c-0.8,0-1.6-0.1-2.3-0.3c-0.7-0.2-1.4-0.5-1.9-0.9c-0.5-0.4-1-1-1.3-1.6
			c-0.3-0.7-0.5-1.4-0.5-2.3c0-1.2,0.3-2.2,0.8-2.9c0.6-0.7,1.3-1.2,2.2-1.6c0.9-0.4,1.9-0.6,3.1-0.8c1.1-0.1,2.3-0.3,3.5-0.4
			c0.5,0,0.9-0.1,1.2-0.2c0.3-0.1,0.6-0.2,0.9-0.4c0.2-0.2,0.4-0.4,0.5-0.7c0.1-0.3,0.2-0.7,0.2-1.2c0-0.7-0.1-1.3-0.4-1.8
			c-0.2-0.5-0.6-0.9-1-1.1c-0.4-0.3-0.9-0.5-1.5-0.6c-0.6-0.1-1.2-0.2-1.8-0.2c-1.4,0-2.5,0.3-3.4,1c-0.9,0.7-1.3,1.7-1.4,3.2h-2.2
			C601.3,167.2,601.5,166.3,601.9,165.5z M612.8,170.9c-0.1,0.3-0.4,0.4-0.8,0.6c-0.4,0.1-0.7,0.2-1,0.2c-0.9,0.2-1.9,0.3-2.9,0.4
			c-1,0.1-1.9,0.3-2.7,0.6c-0.8,0.3-1.5,0.6-2,1.1c-0.5,0.5-0.8,1.1-0.8,2c0,0.6,0.1,1,0.3,1.5c0.2,0.4,0.5,0.8,0.9,1.1
			c0.4,0.3,0.8,0.6,1.3,0.7c0.5,0.2,1,0.2,1.5,0.2c0.8,0,1.6-0.1,2.4-0.4c0.8-0.3,1.4-0.6,2-1.1c0.6-0.5,1-1.1,1.4-1.8
			c0.3-0.7,0.5-1.5,0.5-2.4L612.8,170.9L612.8,170.9z"/>
		<path class="st1" d="M623.1,162.8v4.2h0.1c0.6-1.5,1.4-2.6,2.6-3.4c1.2-0.8,2.6-1.1,4.2-1.1v2.2c-1,0-1.9,0.1-2.7,0.4
			c-0.8,0.3-1.5,0.8-2.1,1.3c-0.6,0.6-1,1.3-1.4,2.1c-0.3,0.8-0.5,1.7-0.5,2.6v9.5h-2.2v-17.9H623.1z"/>
		<path class="st1" d="M636,155.9v15.5l9.9-8.7h2.9l-7.6,6.6l8.1,11.3h-2.7l-7.1-9.7l-3.5,2.9v6.8h-2.2v-24.7H636z"/>
		<path class="st1" d="M654.5,174.7c0.2,0.8,0.6,1.6,1.1,2.3c0.5,0.7,1.1,1.2,1.8,1.7c0.7,0.4,1.6,0.7,2.7,0.7
			c1.6,0,2.8-0.4,3.7-1.2c0.9-0.8,1.5-1.9,1.9-3.3h2.2c-0.5,2-1.3,3.6-2.5,4.7c-1.2,1.1-3,1.7-5.3,1.7c-1.4,0-2.6-0.2-3.7-0.7
			c-1-0.5-1.9-1.2-2.5-2c-0.6-0.9-1.1-1.9-1.4-3c-0.3-1.1-0.5-2.3-0.5-3.6c0-1.2,0.2-2.3,0.5-3.5c0.3-1.1,0.8-2.1,1.4-3
			c0.6-0.9,1.5-1.6,2.5-2.1c1-0.5,2.2-0.8,3.7-0.8c1.4,0,2.7,0.3,3.7,0.9c1,0.6,1.8,1.3,2.5,2.3c0.6,0.9,1.1,2,1.4,3.2
			c0.3,1.2,0.4,2.4,0.3,3.7h-13.8C654.1,173.1,654.2,173.9,654.5,174.7z M665.3,168.1c-0.3-0.8-0.6-1.4-1.1-2
			c-0.5-0.6-1.1-1.1-1.8-1.4c-0.7-0.4-1.5-0.5-2.4-0.5c-0.9,0-1.7,0.2-2.4,0.5c-0.7,0.4-1.3,0.8-1.8,1.4c-0.5,0.6-0.9,1.3-1.2,2
			c-0.3,0.8-0.5,1.6-0.6,2.4h11.6C665.7,169.6,665.5,168.8,665.3,168.1z"/>
		<path class="st1" d="M679.7,162.8v1.8H676v12.1c0,0.7,0.1,1.3,0.3,1.7c0.2,0.4,0.7,0.6,1.5,0.7c0.6,0,1.2,0,1.9-0.1v1.8
			c-0.3,0-0.6,0-1,0c-0.3,0-0.6,0-1,0c-1.5,0-2.5-0.3-3.1-0.8c-0.6-0.6-0.9-1.6-0.8-3.1v-12.2h-3.1v-1.8h3.1v-5.4h2.2v5.4H679.7z"/>
		<path class="st1" d="M686.8,155.9v3.5h-2.2v-3.5H686.8z M686.8,162.8v17.9h-2.2v-17.9H686.8z"/>
		<path class="st1" d="M694.8,162.8v3.1h0.1c0.4-1.1,1.2-2,2.2-2.6c1.1-0.7,2.2-1,3.5-1c1.2,0,2.3,0.2,3.1,0.5
			c0.8,0.3,1.5,0.8,2,1.4c0.5,0.6,0.9,1.3,1.1,2.2c0.2,0.9,0.3,1.8,0.3,2.9v11.5H705v-11.2c0-0.8-0.1-1.5-0.2-2.1
			c-0.1-0.7-0.4-1.2-0.7-1.7c-0.3-0.5-0.8-0.9-1.4-1.1c-0.6-0.3-1.3-0.4-2.2-0.4c-0.9,0-1.7,0.2-2.3,0.5c-0.7,0.3-1.3,0.7-1.7,1.3
			c-0.5,0.5-0.8,1.2-1.1,1.9c-0.3,0.7-0.4,1.6-0.4,2.4v10.4h-2.2v-17.9H694.8z"/>
		<path class="st1" d="M727.7,182.8c-0.3,1.1-0.7,2-1.4,2.7c-0.6,0.7-1.4,1.3-2.4,1.7c-1,0.4-2.2,0.6-3.7,0.6
			c-0.9,0-1.8-0.1-2.6-0.3c-0.9-0.2-1.6-0.5-2.3-1c-0.7-0.4-1.2-1-1.7-1.7c-0.4-0.7-0.7-1.5-0.8-2.4h2.2c0.1,0.7,0.3,1.2,0.7,1.7
			c0.3,0.5,0.7,0.8,1.2,1.1c0.5,0.3,1,0.5,1.6,0.6c0.6,0.1,1.2,0.2,1.8,0.2c2,0,3.5-0.6,4.4-1.7c0.9-1.2,1.4-2.8,1.4-5v-2.4h-0.1
			c-0.5,1.1-1.3,2-2.2,2.7c-1,0.7-2.1,1-3.5,1c-1.4,0-2.7-0.2-3.7-0.7c-1-0.5-1.9-1.1-2.5-2c-0.7-0.8-1.1-1.8-1.4-2.9
			c-0.3-1.1-0.5-2.3-0.5-3.6c0-1.2,0.2-2.4,0.5-3.5c0.4-1.1,0.9-2.1,1.6-2.9c0.7-0.8,1.5-1.5,2.5-1.9c1-0.5,2.2-0.7,3.4-0.7
			c0.7,0,1.3,0.1,1.9,0.3c0.6,0.2,1.1,0.4,1.6,0.8c0.5,0.3,0.9,0.7,1.3,1.2c0.4,0.4,0.7,0.9,0.9,1.4h0.1v-3.1h2.2v16.4
			C728.2,180.5,728,181.7,727.7,182.8z M722.7,178c0.7-0.4,1.3-0.9,1.8-1.6c0.5-0.7,0.8-1.4,1.1-2.3c0.2-0.9,0.4-1.7,0.4-2.6
			c0-0.9-0.1-1.8-0.3-2.6c-0.2-0.9-0.5-1.7-1-2.4c-0.5-0.7-1.1-1.3-1.8-1.7c-0.7-0.4-1.6-0.7-2.7-0.7c-1,0-1.9,0.2-2.7,0.6
			c-0.7,0.4-1.4,1-1.8,1.7c-0.5,0.7-0.8,1.5-1.1,2.4c-0.2,0.9-0.3,1.8-0.3,2.7c0,0.9,0.1,1.8,0.3,2.6c0.2,0.9,0.6,1.6,1.1,2.3
			c0.5,0.7,1.1,1.2,1.8,1.6c0.7,0.4,1.6,0.6,2.6,0.6C721.2,178.6,722,178.4,722.7,178z"/>
		<path class="st1" d="M756.4,165.2c-0.8-0.8-1.9-1.1-3.4-1.1c-1,0-1.9,0.2-2.7,0.7c-0.8,0.4-1.4,1-2,1.7c-0.5,0.7-0.9,1.5-1.2,2.4
			c-0.3,0.9-0.4,1.8-0.4,2.8c0,0.9,0.1,1.9,0.4,2.8c0.3,0.9,0.7,1.7,1.2,2.4c0.5,0.7,1.2,1.3,2,1.7c0.8,0.4,1.7,0.7,2.7,0.7
			c0.7,0,1.3-0.1,1.9-0.4c0.6-0.3,1.1-0.6,1.6-1.1c0.5-0.5,0.8-1,1.1-1.6c0.3-0.6,0.5-1.3,0.6-2h2.2c-0.3,2.2-1.1,3.9-2.4,5.1
			c-1.3,1.2-3,1.8-5,1.8c-1.4,0-2.6-0.2-3.6-0.7c-1-0.5-1.9-1.2-2.6-2c-0.7-0.9-1.3-1.9-1.6-3c-0.4-1.1-0.6-2.4-0.6-3.7
			c0-1.3,0.2-2.5,0.6-3.7c0.4-1.1,0.9-2.1,1.6-3c0.7-0.9,1.6-1.5,2.6-2c1.1-0.5,2.3-0.8,3.6-0.8c1.9,0,3.5,0.5,4.9,1.5
			c1.3,1,2.1,2.6,2.4,4.6H758C757.7,167,757.2,166,756.4,165.2z"/>
		<path class="st1" d="M767.1,162.8v4.2h0.1c0.6-1.5,1.4-2.6,2.6-3.4c1.2-0.8,2.6-1.1,4.2-1.1v2.2c-1,0-1.9,0.1-2.7,0.4
			c-0.8,0.3-1.5,0.8-2.1,1.3c-0.6,0.6-1,1.3-1.4,2.1c-0.3,0.8-0.5,1.7-0.5,2.6v9.5h-2.2v-17.9H767.1z"/>
		<path class="st1" d="M778.8,174.7c0.2,0.8,0.6,1.6,1.1,2.3c0.5,0.7,1.1,1.2,1.8,1.7c0.7,0.4,1.6,0.7,2.7,0.7
			c1.6,0,2.8-0.4,3.7-1.2c0.9-0.8,1.5-1.9,1.9-3.3h2.2c-0.5,2-1.3,3.6-2.5,4.7c-1.2,1.1-3,1.7-5.3,1.7c-1.4,0-2.6-0.2-3.7-0.7
			c-1-0.5-1.9-1.2-2.5-2c-0.6-0.9-1.1-1.9-1.4-3c-0.3-1.1-0.5-2.3-0.5-3.6c0-1.2,0.2-2.3,0.5-3.5c0.3-1.1,0.8-2.1,1.4-3
			c0.6-0.9,1.5-1.6,2.5-2.1c1-0.5,2.2-0.8,3.7-0.8c1.4,0,2.7,0.3,3.7,0.9c1,0.6,1.8,1.3,2.5,2.3c0.6,0.9,1.1,2,1.4,3.2
			c0.3,1.2,0.4,2.4,0.3,3.7h-13.8C778.4,173.1,778.5,173.9,778.8,174.7z M789.6,168.1c-0.3-0.8-0.6-1.4-1.1-2
			c-0.5-0.6-1.1-1.1-1.8-1.4c-0.7-0.4-1.5-0.5-2.4-0.5c-0.9,0-1.7,0.2-2.4,0.5c-0.7,0.4-1.3,0.8-1.8,1.4c-0.5,0.6-0.9,1.3-1.2,2
			c-0.3,0.8-0.5,1.6-0.6,2.4H790C790,169.6,789.8,168.8,789.6,168.1z"/>
		<path class="st1" d="M797.3,165.5c0.4-0.8,0.9-1.4,1.5-1.9c0.6-0.5,1.4-0.8,2.2-1.1c0.9-0.2,1.8-0.3,2.8-0.3
			c0.8,0,1.6,0.1,2.4,0.2c0.8,0.1,1.5,0.4,2.1,0.8c0.6,0.4,1.1,1,1.5,1.8c0.4,0.8,0.6,1.7,0.6,2.9v9.5c0,0.9,0.4,1.3,1.3,1.3
			c0.3,0,0.5,0,0.7-0.1v1.8c-0.3,0-0.5,0.1-0.7,0.1c-0.2,0-0.4,0-0.7,0c-0.6,0-1-0.1-1.3-0.2c-0.3-0.1-0.6-0.4-0.8-0.6
			c-0.2-0.3-0.3-0.6-0.4-1c-0.1-0.4-0.1-0.8-0.1-1.3h-0.1c-0.4,0.6-0.8,1.1-1.2,1.5c-0.4,0.4-0.9,0.8-1.3,1.1
			c-0.5,0.3-1.1,0.5-1.7,0.7c-0.6,0.2-1.4,0.2-2.3,0.2c-0.8,0-1.6-0.1-2.3-0.3c-0.7-0.2-1.4-0.5-1.9-0.9c-0.5-0.4-1-1-1.3-1.6
			c-0.3-0.7-0.5-1.4-0.5-2.3c0-1.2,0.3-2.2,0.8-2.9c0.6-0.7,1.3-1.2,2.2-1.6c0.9-0.4,1.9-0.6,3.1-0.8c1.1-0.1,2.3-0.3,3.5-0.4
			c0.5,0,0.9-0.1,1.2-0.2c0.3-0.1,0.6-0.2,0.9-0.4c0.2-0.2,0.4-0.4,0.5-0.7c0.1-0.3,0.2-0.7,0.2-1.2c0-0.7-0.1-1.3-0.4-1.8
			c-0.2-0.5-0.6-0.9-1-1.1c-0.4-0.3-0.9-0.5-1.5-0.6c-0.6-0.1-1.2-0.2-1.8-0.2c-1.4,0-2.5,0.3-3.4,1c-0.9,0.7-1.3,1.7-1.4,3.2h-2.2
			C796.7,167.2,797,166.3,797.3,165.5z M808.2,170.9c-0.1,0.3-0.4,0.4-0.8,0.6c-0.4,0.1-0.7,0.2-1,0.2c-0.9,0.2-1.9,0.3-2.9,0.4
			c-1,0.1-1.9,0.3-2.7,0.6c-0.8,0.3-1.5,0.6-2,1.1c-0.5,0.5-0.8,1.1-0.8,2c0,0.6,0.1,1,0.3,1.5c0.2,0.4,0.5,0.8,0.9,1.1
			c0.4,0.3,0.8,0.6,1.3,0.7c0.5,0.2,1,0.2,1.5,0.2c0.8,0,1.6-0.1,2.4-0.4c0.8-0.3,1.4-0.6,2-1.1c0.6-0.5,1-1.1,1.4-1.8
			c0.3-0.7,0.5-1.5,0.5-2.4L808.2,170.9L808.2,170.9z"/>
		<path class="st1" d="M823.7,162.8v1.8h-3.6v12.1c0,0.7,0.1,1.3,0.3,1.7c0.2,0.4,0.7,0.6,1.5,0.7c0.6,0,1.2,0,1.9-0.1v1.8
			c-0.3,0-0.6,0-1,0c-0.3,0-0.6,0-1,0c-1.5,0-2.5-0.3-3-0.8c-0.6-0.6-0.9-1.6-0.8-3.1v-12.2h-3.1v-1.8h3.1v-5.4h2.2v5.4H823.7z"/>
		<path class="st1" d="M830.8,155.9v3.5h-2.2v-3.5H830.8z M830.8,162.8v17.9h-2.2v-17.9H830.8z"/>
		<path class="st1" d="M837.1,162.8l5.6,15.7h0.1l5.5-15.7h2.3l-6.7,17.9h-2.3l-6.9-17.9H837.1z"/>
		<path class="st1" d="M856.1,174.7c0.2,0.8,0.6,1.6,1.1,2.3c0.5,0.7,1.1,1.2,1.8,1.7c0.7,0.4,1.6,0.7,2.7,0.7
			c1.6,0,2.8-0.4,3.7-1.2c0.9-0.8,1.5-1.9,1.9-3.3h2.2c-0.5,2-1.3,3.6-2.5,4.7c-1.2,1.1-3,1.7-5.3,1.7c-1.4,0-2.6-0.2-3.7-0.7
			c-1-0.5-1.9-1.2-2.5-2c-0.6-0.9-1.1-1.9-1.4-3c-0.3-1.1-0.5-2.3-0.5-3.6c0-1.2,0.2-2.3,0.5-3.5c0.3-1.1,0.8-2.1,1.4-3
			c0.6-0.9,1.5-1.6,2.5-2.1c1-0.5,2.2-0.8,3.7-0.8c1.4,0,2.7,0.3,3.7,0.9c1,0.6,1.8,1.3,2.5,2.3c0.6,0.9,1.1,2,1.4,3.2
			c0.3,1.2,0.4,2.4,0.4,3.7h-13.8C855.8,173.1,855.9,173.9,856.1,174.7z M866.9,168.1c-0.3-0.8-0.6-1.4-1.1-2
			c-0.5-0.6-1.1-1.1-1.8-1.4c-0.7-0.4-1.5-0.5-2.4-0.5c-0.9,0-1.7,0.2-2.4,0.5c-0.7,0.4-1.3,0.8-1.8,1.4c-0.5,0.6-0.9,1.3-1.2,2
			c-0.3,0.8-0.5,1.6-0.6,2.4h11.6C867.3,169.6,867.2,168.8,866.9,168.1z"/>
		<path class="st1" d="M886.1,165.5c0.4-0.8,0.9-1.4,1.5-1.9c0.6-0.5,1.4-0.8,2.2-1.1c0.9-0.2,1.8-0.3,2.8-0.3
			c0.8,0,1.6,0.1,2.4,0.2c0.8,0.1,1.5,0.4,2.1,0.8c0.6,0.4,1.1,1,1.5,1.8c0.4,0.8,0.6,1.7,0.6,2.9v9.5c0,0.9,0.4,1.3,1.3,1.3
			c0.2,0,0.5,0,0.7-0.1v1.8c-0.3,0-0.5,0.1-0.7,0.1c-0.2,0-0.4,0-0.7,0c-0.6,0-1-0.1-1.3-0.2c-0.3-0.1-0.6-0.4-0.8-0.6
			c-0.2-0.3-0.3-0.6-0.4-1c-0.1-0.4-0.1-0.8-0.1-1.3h-0.1c-0.4,0.6-0.8,1.1-1.2,1.5c-0.4,0.4-0.9,0.8-1.4,1.1
			c-0.5,0.3-1.1,0.5-1.7,0.7c-0.6,0.2-1.4,0.2-2.3,0.2c-0.8,0-1.6-0.1-2.3-0.3c-0.7-0.2-1.4-0.5-1.9-0.9c-0.6-0.4-1-1-1.3-1.6
			c-0.3-0.7-0.5-1.4-0.5-2.3c0-1.2,0.3-2.2,0.8-2.9c0.6-0.7,1.3-1.2,2.2-1.6c0.9-0.4,1.9-0.6,3.1-0.8c1.1-0.1,2.3-0.3,3.5-0.4
			c0.5,0,0.9-0.1,1.2-0.2c0.3-0.1,0.6-0.2,0.9-0.4c0.2-0.2,0.4-0.4,0.5-0.7c0.1-0.3,0.2-0.7,0.2-1.2c0-0.7-0.1-1.3-0.4-1.8
			c-0.2-0.5-0.6-0.9-1-1.1c-0.4-0.3-0.9-0.5-1.5-0.6c-0.6-0.1-1.2-0.2-1.8-0.2c-1.4,0-2.5,0.3-3.4,1c-0.9,0.7-1.3,1.7-1.4,3.2h-2.2
			C885.5,167.2,885.7,166.3,886.1,165.5z M897,170.9c-0.1,0.3-0.4,0.4-0.8,0.6c-0.4,0.1-0.7,0.2-1,0.2c-0.9,0.2-1.9,0.3-2.9,0.4
			c-1,0.1-1.9,0.3-2.7,0.6c-0.8,0.3-1.5,0.6-2,1.1c-0.5,0.5-0.8,1.1-0.8,2c0,0.6,0.1,1,0.3,1.5c0.2,0.4,0.5,0.8,0.9,1.1
			c0.4,0.3,0.8,0.6,1.3,0.7c0.5,0.2,1,0.2,1.5,0.2c0.8,0,1.6-0.1,2.4-0.4c0.8-0.3,1.4-0.6,2-1.1c0.6-0.5,1-1.1,1.4-1.8
			c0.3-0.7,0.5-1.5,0.5-2.4L897,170.9L897,170.9z"/>
		<path class="st1" d="M920,182.8c-0.3,1.1-0.7,2-1.4,2.7c-0.6,0.7-1.4,1.3-2.4,1.7c-1,0.4-2.2,0.6-3.7,0.6c-0.9,0-1.8-0.1-2.6-0.3
			c-0.9-0.2-1.6-0.5-2.3-1c-0.7-0.4-1.2-1-1.7-1.7c-0.4-0.7-0.7-1.5-0.8-2.4h2.2c0.1,0.7,0.3,1.2,0.7,1.7c0.3,0.5,0.7,0.8,1.2,1.1
			c0.5,0.3,1,0.5,1.6,0.6c0.6,0.1,1.2,0.2,1.8,0.2c2,0,3.5-0.6,4.4-1.7c0.9-1.2,1.4-2.8,1.4-5v-2.4h-0.1c-0.5,1.1-1.3,2-2.2,2.7
			c-1,0.7-2.1,1-3.4,1c-1.4,0-2.7-0.2-3.7-0.7c-1-0.5-1.9-1.1-2.5-2c-0.7-0.8-1.1-1.8-1.4-2.9c-0.3-1.1-0.4-2.3-0.4-3.6
			c0-1.2,0.2-2.4,0.5-3.5c0.4-1.1,0.9-2.1,1.6-2.9c0.7-0.8,1.5-1.5,2.5-1.9c1-0.5,2.2-0.7,3.5-0.7c0.7,0,1.3,0.1,1.9,0.3
			c0.6,0.2,1.1,0.4,1.6,0.8c0.5,0.3,0.9,0.7,1.3,1.2c0.4,0.4,0.7,0.9,0.9,1.4h0.1v-3.1h2.2v16.4C920.4,180.5,920.3,181.7,920,182.8z
			 M915,178c0.7-0.4,1.3-0.9,1.8-1.6c0.5-0.7,0.9-1.4,1.1-2.3c0.2-0.9,0.4-1.7,0.4-2.6c0-0.9-0.1-1.8-0.3-2.6
			c-0.2-0.9-0.5-1.7-1-2.4c-0.5-0.7-1.1-1.3-1.8-1.7c-0.7-0.4-1.6-0.7-2.6-0.7c-1,0-1.9,0.2-2.7,0.6c-0.7,0.4-1.4,1-1.8,1.7
			c-0.5,0.7-0.8,1.5-1.1,2.4c-0.2,0.9-0.3,1.8-0.3,2.7c0,0.9,0.1,1.8,0.3,2.6c0.2,0.9,0.6,1.6,1.1,2.3c0.5,0.7,1.1,1.2,1.8,1.6
			c0.7,0.4,1.6,0.6,2.6,0.6C913.4,178.6,914.3,178.4,915,178z"/>
		<path class="st1" d="M927.9,174.7c0.2,0.8,0.6,1.6,1.1,2.3c0.5,0.7,1.1,1.2,1.8,1.7c0.7,0.4,1.6,0.7,2.7,0.7
			c1.6,0,2.8-0.4,3.7-1.2c0.9-0.8,1.5-1.9,1.9-3.3h2.2c-0.5,2-1.3,3.6-2.5,4.7c-1.2,1.1-3,1.7-5.3,1.7c-1.4,0-2.6-0.2-3.7-0.7
			c-1-0.5-1.9-1.2-2.5-2c-0.6-0.9-1.1-1.9-1.4-3c-0.3-1.1-0.5-2.3-0.5-3.6c0-1.2,0.2-2.3,0.5-3.5c0.3-1.1,0.8-2.1,1.4-3
			c0.6-0.9,1.5-1.6,2.5-2.1c1-0.5,2.3-0.8,3.7-0.8c1.4,0,2.7,0.3,3.7,0.9c1,0.6,1.8,1.3,2.5,2.3c0.6,0.9,1.1,2,1.4,3.2
			c0.3,1.2,0.4,2.4,0.4,3.7h-13.8C927.6,173.1,927.7,173.9,927.9,174.7z M938.7,168.1c-0.3-0.8-0.6-1.4-1.1-2
			c-0.5-0.6-1.1-1.1-1.8-1.4c-0.7-0.4-1.5-0.5-2.4-0.5c-0.9,0-1.7,0.2-2.4,0.5c-0.7,0.4-1.3,0.8-1.8,1.4c-0.5,0.6-0.9,1.3-1.2,2
			c-0.3,0.8-0.5,1.6-0.6,2.4h11.6C939.2,169.6,939,168.8,938.7,168.1z"/>
		<path class="st1" d="M948.2,162.8v3.1h0.1c0.4-1.1,1.2-2,2.2-2.6c1.1-0.7,2.2-1,3.5-1c1.2,0,2.3,0.2,3.1,0.5
			c0.8,0.3,1.5,0.8,2,1.4c0.5,0.6,0.9,1.3,1.1,2.2c0.2,0.9,0.3,1.8,0.3,2.9v11.5h-2.2v-11.2c0-0.8-0.1-1.5-0.2-2.1
			c-0.1-0.7-0.4-1.2-0.7-1.7c-0.3-0.5-0.8-0.9-1.4-1.1c-0.6-0.3-1.3-0.4-2.2-0.4c-0.9,0-1.7,0.2-2.3,0.5c-0.7,0.3-1.3,0.7-1.7,1.3
			c-0.5,0.5-0.8,1.2-1.1,1.9c-0.3,0.7-0.4,1.6-0.4,2.4v10.4H946v-17.9H948.2z"/>
		<path class="st1" d="M977.3,165.2c-0.8-0.8-1.9-1.1-3.4-1.1c-1,0-2,0.2-2.7,0.7c-0.8,0.4-1.4,1-2,1.7c-0.5,0.7-0.9,1.5-1.2,2.4
			c-0.3,0.9-0.4,1.8-0.4,2.8c0,0.9,0.1,1.9,0.4,2.8c0.3,0.9,0.7,1.7,1.2,2.4c0.5,0.7,1.2,1.3,2,1.7c0.8,0.4,1.7,0.7,2.7,0.7
			c0.7,0,1.3-0.1,1.9-0.4c0.6-0.3,1.1-0.6,1.6-1.1c0.5-0.5,0.8-1,1.1-1.6c0.3-0.6,0.5-1.3,0.6-2h2.2c-0.3,2.2-1.1,3.9-2.4,5.1
			c-1.3,1.2-3,1.8-5,1.8c-1.4,0-2.6-0.2-3.6-0.7c-1-0.5-1.9-1.2-2.7-2c-0.7-0.9-1.3-1.9-1.6-3c-0.4-1.1-0.6-2.4-0.6-3.7
			c0-1.3,0.2-2.5,0.6-3.7c0.4-1.1,0.9-2.1,1.6-3c0.7-0.9,1.6-1.5,2.7-2c1-0.5,2.3-0.8,3.6-0.8c1.9,0,3.5,0.5,4.9,1.5
			c1.3,1,2.1,2.6,2.4,4.6H979C978.7,167,978.1,166,977.3,165.2z"/>
		<path class="st1" d="M986.4,162.8l5.9,15.2l5.5-15.2h2.2l-7.8,20.6c-0.3,0.8-0.6,1.4-0.9,1.9c-0.3,0.5-0.6,0.9-0.9,1.2
			c-0.3,0.3-0.7,0.5-1.2,0.6c-0.4,0.1-1,0.2-1.7,0.2c-0.4,0-0.8,0-1,0c-0.2,0-0.5-0.1-0.6-0.1v-1.8c0.3,0,0.5,0.1,0.7,0.1
			c0.2,0,0.5,0.1,0.7,0.1c0.5,0,0.9-0.1,1.2-0.2c0.3-0.1,0.6-0.3,0.8-0.6c0.2-0.2,0.4-0.5,0.6-0.9c0.2-0.3,0.3-0.7,0.5-1.1l0.8-2
			l-7.1-17.8H986.4z"/>
	</g>
</g>
</svg>
