<?xml version="1.0" encoding="utf-8"?>
<!-- Generator: Adobe Illustrator 19.0.0, SVG Export Plug-In . SVG Version: 6.00 Build 0)  -->
<svg version="1.1" id="Layer_1" xmlns="http://www.w3.org/2000/svg" xmlns:xlink="http://www.w3.org/1999/xlink" x="0px" y="0px"
	 viewBox="-389.2 242.1 78.2 78.2" style="enable-background:new -389.2 242.1 78.2 78.2;" xml:space="preserve">
<style type="text/css">
	.st0{fill:#FFFFFF;}
</style>
<g>
	<path class="st0" d="M-357.2,289.8c5.9-3,11.7-6.1,17.6-9.1c-5.9-3.1-11.7-6.1-17.6-9.2C-357.2,271.5-357.2,289.8-357.2,289.8z"/>
	<path class="st0" d="M-350.1,242.1c-21.6,0-39.1,17.5-39.1,39.1c0,21.6,17.5,39.1,39.1,39.1s39.1-17.5,39.1-39.1
		C-311,259.6-328.5,242.1-350.1,242.1L-350.1,242.1z M-323.4,294.3c-0.7,2.9-3.1,5.1-6,5.4c-6.8,0.8-13.8,0.8-20.7,0.8
		c-6.9,0-13.8,0-20.7-0.8c-2.9-0.3-5.3-2.5-6-5.4c-1-4.2-1-8.7-1-13.1c0-4.3,0-8.9,1-13.1c0.7-2.9,3.1-5.1,6-5.4
		c6.8-0.8,13.8-0.8,20.7-0.8c6.9,0,13.8,0,20.7,0.8c2.9,0.3,5.3,2.5,6,5.4c1,4.2,1,8.8,1,13.1C-322.5,285.5-322.5,290.1-323.4,294.3
		L-323.4,294.3z"/>
</g>
</svg>
