<?xml version="1.0" encoding="utf-8"?>
<!-- Generator: Adobe Illustrator 19.0.0, SVG Export Plug-In . SVG Version: 6.00 Build 0)  -->
<svg version="1.1" id="Capa_1" xmlns="http://www.w3.org/2000/svg" xmlns:xlink="http://www.w3.org/1999/xlink" x="0px" y="0px"
	 viewBox="-202 145 416 496" style="enable-background:new -202 145 416 496;" xml:space="preserve">
<style type="text/css">
	.st0{fill:#FFA64D;}
	.st1{fill:#333333;}
</style>
<g>
	<path class="st0" d="M-112.3,187.9l0.1,2.2L6,333.6l118.2-143.5l0.1-2.2C93,165.9,55,153,14,153H-2
		C-43.1,153-81.1,165.9-112.3,187.9z"/>
	<path class="st0" d="M94,545l-30.2-18.1C57.4,523,50,521,42.5,521c-8.2,0-16.2,2.4-23,7l-13.6,9l-13.6-9c-6.8-4.5-14.8-7-23-7
		c-7.5,0-14.9,2-21.3,5.9L-82,545l6.6,1.1c0.8,0.1,1.6,0.4,2.4,0.5c5.4,8.8,35.7,54.4,79,54.4s73.6-45.6,79-54.4
		c0.8-0.1,1.6-0.4,2.4-0.5L94,545z"/>
</g>
<g>
	<path class="st1" d="M14,145H-2c-110.3,0-200,89.7-200,200v96c0,110.3,89.7,200,200,200h16c110.3,0,200-89.7,200-200v-96
		C214,234.7,124.3,145,14,145z M14,161c21.1,0,41.4,3.6,60.2,10.2L6,259.9l-68.2-88.7C-43.3,164.6-23.1,161-2,161H14z M198,441
		c0,101.5-82.5,184-184,184H-2c-101.5,0-184-82.5-184-184v-96c0-74.5,44.5-138.7,108.3-167.7L6,286.1l83.7-108.8
		C153.5,206.3,198,270.5,198,345V441z"/>
	<path class="st1" d="M126,273c-19.5,0-35.7,14-39.2,32.4c-28.5,3.1-52.3,24.5-58,53.1c-4.6,23.1-2.4,46.8,6.3,68.6l17.8,44.4
		c-5.4,5.7-19.9,17.4-46.8,17.4s-41.4-11.7-46.8-17.4l17.8-44.4c8.7-21.8,10.9-45.6,6.3-68.6c-5.7-28.6-29.5-49.9-58-53.1
		C-78.3,287-94.5,273-114,273h-14.2c-27.5,0-49.8,22.3-49.8,49.8c0,13.9,6.2,26.5,16,34.9v21.1c0,26.2,16.5,49.9,40.9,59.1
		c7.2,2.7,14.8,4,22.2,4c13.4,0,26.7-4.3,37.8-12.7l27.2-20.4c-1.1,4.2-2.4,8.3-4,12.3L-59,473.9l2.3,3.5
		C-55.9,478.5-37.8,505,6,505s61.9-26.4,62.7-27.6l2.3-3.5l-21.1-52.7c-1.6-4-2.9-8.1-4-12.3l27.2,20.4
		c11.1,8.3,24.4,12.7,37.8,12.7c7.5,0,15-1.3,22.2-4c24.5-9.2,40.9-32.9,40.9-59.1v-21.1c9.8-8.5,16-21,16-34.9
		c0-27.5-22.3-49.8-49.8-49.8H126V273z M-162,322.8c0-18.6,15.2-33.8,33.8-33.8h14.2c13.2,0,24,10.8,24,24s-10.8,24-24,24
		c-4.4,0-8-3.6-8-8s3.6-8,8-8v-16c-13.2,0-24,10.8-24,24s10.8,24,24,24c19.1,0,35-13.5,39-31.4c21,3,38.3,18.8,42.6,40
		c1.3,6.4,1.9,12.8,2,19.2C-60.5,362.7-94.7,353-130,353h-1.8C-148.5,353-162,339.5-162,322.8z M-70.7,416.5
		c-12.9,9.7-29.7,12.1-44.8,6.4c-18.2-6.8-30.5-24.6-30.5-44.1v-12c4.5,1.4,9.2,2.2,14.2,2.2h1.8c31.8,0,62.7,8.5,89.9,24.6
		L-70.7,416.5z M158,378.8c0,19.5-12.3,37.2-30.6,44.1c-15.1,5.7-31.9,3.3-44.8-6.4L52,393.6c27.2-16.1,58.1-24.6,89.9-24.6h1.8
		c4.9,0,9.7-0.8,14.2-2.2v12H158z M174,322.8c0,16.6-13.5,30.2-30.2,30.2H142c-35.3,0-69.5,9.7-99.5,27.8c0.1-6.4,0.7-12.8,2-19.2
		c4.2-21.2,21.6-37.1,42.6-40c4,17.9,19.9,31.4,39,31.4c13.2,0,24-10.8,24-24s-10.8-24-24-24v16c4.4,0,8,3.6,8,8s-3.6,8-8,8
		c-13.2,0-24-10.8-24-24s10.8-24,24-24h14.2C158.8,289,174,304.2,174,322.8z"/>
	<path class="st1" d="M68,520c-16.1-9.6-37.2-9.1-52.8,1.3l-9.1,6.1l-9.1-6.1c-15.6-10.4-36.7-10.9-52.8-1.3l-48.8,29.3l26.8,4.5
		C-68.6,568-38,609,6,609s74.6-41,83.9-55.2l26.8-4.5L68,520z M-47.7,533.8c10.9-6.5,25.2-6.2,35.7,0.8l18,12l18-12
		c10.6-7,24.8-7.4,35.7-0.8l12.2,7.3c-14.5,3.5-29.7,8.6-46.8,15.9c-12.6,5.3-25.8,5.3-38.3,0c-17.1-7.3-32.2-12.4-46.8-15.9
		L-47.7,533.8z M6,593c-25.7,0-46.8-18.6-59.6-33.6c10.7,3.1,21.9,7.1,34.2,12.3c8.3,3.5,16.8,5.3,25.4,5.3s17.2-1.8,25.4-5.3
		c12.3-5.3,23.5-9.2,34.2-12.3C52.9,574.3,31.8,593,6,593z"/>
</g>
</svg>
