<?xml version="1.0" encoding="utf-8"?>
<!-- Generator: Adobe Illustrator 19.0.0, SVG Export Plug-In . SVG Version: 6.00 Build 0)  -->
<svg version="1.1" id="Capa_1" xmlns="http://www.w3.org/2000/svg" xmlns:xlink="http://www.w3.org/1999/xlink" x="0px" y="0px"
	 viewBox="944.3 184.8 474.6 474.4" style="enable-background:new 944.3 184.8 474.6 474.4;" xml:space="preserve">
<style type="text/css">
	.st0{fill:#F7971D;}
	.st1{fill:#333333;}
</style>
<circle class="st0" cx="1165.7" cy="422.6" r="82.4"/>
<g>
	<path class="st1" d="M1166.1,391.4c-16.9,0-30.6,13.7-30.6,30.6s13.7,30.6,30.6,30.6c16.9,0,30.6-13.7,30.6-30.6
		C1196.8,405.1,1183,391.4,1166.1,391.4L1166.1,391.4z M1166.1,437.3c-8.4,0-15.3-6.9-15.3-15.3s6.9-15.3,15.3-15.3
		s15.3,6.9,15.3,15.3C1181.5,430.4,1174.6,437.3,1166.1,437.3L1166.1,437.3z"/>
	<path class="st1" d="M1123.5,235.2c-15.8,10.9-40.8,30.8-70.5,63.5c-26.9,29.8-49.4,61.4-63.3,89.2l13.7,6.8
		c13.3-26.6,34.9-57.1,61-85.8c28.7-31.7,52.7-50.8,67.8-61.2L1123.5,235.2z"/>
	<path class="st1" d="M1267.9,309c18,19.9,34.2,41,46.9,61l12.9-8.2c-13.1-20.8-29.9-42.6-48.5-63.1c-29.6-32.7-54.7-52.6-70.5-63.5
		l-8.7,12.6C1215.2,258.2,1239.2,277.3,1267.9,309L1267.9,309z"/>
	<path class="st1" d="M1394.4,460.3c-1.6-4.5-4.6-8.4-8.4-11.1c1.4-5.2,2.1-9,2.1-11.9c0-89.4-155.6-252.5-221.9-252.5
		S944.3,347.9,944.3,437.3c0,23,55.8,142.4,68.9,170.1v51.8h306.1c12.7,0,23-10.3,23-23c0-0.4,0-0.9,0-1.3
		c8.9-3.2,15.3-11.7,15.3-21.7s-6.4-18.4-15.3-21.5v-34.3c6.5-14.4,12.4-27.8,17.7-40c3.7,2.5,8.1,4,12.9,4c10,0,18.5-6.4,21.7-15.3
		c13.1,0.8,24.3-9.8,24.3-22.9C1418.6,470.1,1407.5,459.5,1394.4,460.3L1394.4,460.3z M1189.1,205.9
		c67.1,29,183.6,161.3,183.6,231.4c0,0.8-0.2,2.9-1.5,7.8c-9.3,0.6-17,6.7-20,15.2h-9.1v-9.1c8.9-3.2,15.3-11.6,15.3-21.5
		c0-10-6.4-18.5-15.3-21.7c0-0.4,0-0.9,0-1.3c0-6-2.3-11.4-6.1-15.5l6.5-3.2c-2.2-4.5-4.7-9.1-7.4-13.8l-13.3,7.6
		c0.5,0.8,0.8,1.6,1.3,2.4c-1.3-0.2-2.6-0.4-3.9-0.4c-12.7,0-23,10.3-23,23c0,0.4,0,0.9,0,1.3c-8.9,3.2-15.3,11.7-15.3,21.7
		s6.4,18.4,15.3,21.5v9.1h-9.1c-3.2-8.9-11.6-15.3-21.5-15.3c-10,0-18.5,6.4-21.7,15.3c-13.1-0.8-24.3,9.8-24.3,22.9
		s11.2,23.7,24.3,22.9c3.1,8.9,11.7,15.3,21.7,15.3s18.4-6.4,21.5-15.3h9.1v61.2h-99.5c-4.2,0-7.7-3.4-7.7-7.7v-81
		c22.4-9.1,38.3-31.1,38.3-56.7s-15.9-47.6-38.3-56.7V205.9H1189.1z M1166.1,467.9c-25.3,0-45.9-20.6-45.9-45.9s20.6-45.9,45.9-45.9
		c25.3,0,45.9,20.6,45.9,45.9C1212.1,447.3,1191.5,467.9,1166.1,467.9L1166.1,467.9z M1158.5,201c2.7-0.5,5.3-0.9,7.7-0.9
		s5,0.4,7.7,0.9v160.3c-2.5-0.3-5.1-0.5-7.7-0.5c-2.6,0-5.1,0.2-7.7,0.5V201z M1011.4,567.4C987,514,959.5,449.9,959.5,437.3
		c0-70.1,116.6-202.3,183.6-231.4v159.4c-22.4,9.1-38.3,31.1-38.3,56.7s15.9,47.6,38.3,56.7v81c0,4.2-3.4,7.7-7.7,7.7L1011.4,567.4
		L1011.4,567.4z M1028.4,643.9v-30.6h15.3V598h-18.1c-2.3-4.9-4.7-10-7.2-15.3h117.1c12.7,0,23-10.3,23-23v-77
		c2.5,0.3,5.1,0.5,7.7,0.5s5.1-0.2,7.7-0.5v77c0,12.7,10.3,23,23,23h99.5v9.1c-3.6,1.3-6.8,3.4-9.3,6.2H1059v15.3h221.9
		c0,10,6.4,18.5,15.3,21.7c0,0.4,0,0.9,0,1.3c0,2.7,0.5,5.2,1.4,7.7L1028.4,643.9L1028.4,643.9z M1342.1,519.7v-13.5h5.8
		C1346.1,510.5,1344.2,515,1342.1,519.7L1342.1,519.7z M1391.8,489.7c-2.5-1.5-5.7-1.3-8.2,0.3c-2.5,1.6-3.7,4.7-3.3,7.6
		c0,0.3,0.1,0.6,0.1,0.9c0,4.2-3.4,7.7-7.6,7.7s-7.7-3.4-7.7-7.7v-7.6h-38.3v114.8h7.7c4.2,0,7.6,3.4,7.6,7.7c0,4.6-3.8,8.2-8.7,7.5
		c-3-0.5-5.9,0.8-7.5,3.3s-1.7,5.7-0.2,8.2c0.7,1.3,1.1,2.6,1.1,3.9c0,4.2-3.4,7.7-7.7,7.7c-4.2,0-7.7-3.4-7.7-7.7
		c0-1.3,0.4-2.7,1.1-3.9c1.5-2.5,1.4-5.7-0.2-8.2c-1.7-2.5-4.6-3.7-7.5-3.3c-4.4,0.7-8.7-2.9-8.7-7.5c0-4.2,3.4-7.7,7.7-7.7h7.6
		V490.9h-38.3v7.6c0,4.2-3.4,7.7-7.6,7.7c-4.2,0-7.7-3.4-7.7-7.7c0-0.3,0.1-0.6,0.2-1.2c0.4-2.9-0.9-5.8-3.4-7.5
		c-2.5-1.6-5.6-1.7-8.2-0.2c-5.2,3.1-11.6-0.9-11.6-6.5s6.4-9.6,11.6-6.5c2.5,1.5,5.7,1.3,8.2-0.3c2.5-1.6,3.8-4.7,3.3-7.6
		c0-0.3-0.1-0.6-0.1-0.9c0-4.2,3.4-7.6,7.7-7.6c4.2,0,7.6,3.4,7.6,7.6v7.7h38.3v-38.3h-7.6c-4.2,0-7.7-3.4-7.7-7.7
		c0-4.6,3.7-8.3,8.7-7.5c3,0.5,5.9-0.8,7.5-3.3c1.7-2.5,1.7-5.7,0.2-8.2c-0.8-1.3-1.1-2.6-1.1-3.9c0-4.2,3.4-7.7,7.7-7.7
		c4.2,0,7.7,3.4,7.7,7.7c0,1.3-0.4,2.7-1.1,3.9c-1.5,2.5-1.4,5.7,0.2,8.2c1.7,2.5,4.6,3.7,7.5,3.3c4.4-0.7,8.7,2.9,8.7,7.5
		c0,4.2-3.4,7.7-7.6,7.7h-7.7v38.3h38.3v-7.7c0-4.2,3.4-7.6,7.7-7.6c4.2,0,7.6,3.4,7.6,7.6c0,0.3-0.1,0.6-0.1,1.2
		c-0.4,2.9,0.9,5.8,3.4,7.5c2.5,1.6,5.6,1.7,8.2,0.2c5.2-3.1,11.6,0.9,11.6,6.5C1403.3,488.8,1396.9,492.9,1391.8,489.7
		L1391.8,489.7z"/>
</g>
<path class="st0" d="M1391.8,489.7c-2.5-1.5-5.7-1.3-8.2,0.3c-2.5,1.6-3.7,4.7-3.3,7.6c0,0.3,0.1,0.6,0.1,0.9c0,4.2-3.4,7.7-7.6,7.7
	s-7.7-3.4-7.7-7.7v-7.6h-38.3v114.8h7.7c4.2,0,7.6,3.4,7.6,7.7c0,4.6-3.8,8.2-8.7,7.5c-3-0.5-5.9,0.8-7.5,3.3s-1.7,5.7-0.2,8.2
	c0.7,1.3,1.1,2.6,1.1,3.9c0,4.2-3.4,7.7-7.7,7.7c-4.2,0-7.7-3.4-7.7-7.7c0-1.3,0.4-2.7,1.1-3.9c1.5-2.5,1.4-5.7-0.2-8.2
	c-1.7-2.5-4.6-3.7-7.5-3.3c-4.4,0.7-8.7-2.9-8.7-7.5c0-4.2,3.4-7.7,7.7-7.7h7.6V490.9h-38.3v7.6c0,4.2-3.4,7.7-7.6,7.7
	c-4.2,0-7.7-3.4-7.7-7.7c0-0.3,0.1-0.6,0.2-1.2c0.4-2.9-0.9-5.8-3.4-7.5c-2.5-1.6-5.6-1.7-8.2-0.2c-5.2,3.1-11.6-0.9-11.6-6.5
	s6.4-9.6,11.6-6.5c2.5,1.5,5.7,1.3,8.2-0.3c2.5-1.6,3.8-4.7,3.3-7.6c0-0.3-0.1-0.6-0.1-0.9c0-4.2,3.4-7.6,7.7-7.6
	c4.2,0,7.6,3.4,7.6,7.6v7.7h38.3v-38.3h-7.6c-4.2,0-7.7-3.4-7.7-7.7c0-4.6,3.7-8.3,8.7-7.5c3,0.5,5.9-0.8,7.5-3.3
	c1.7-2.5,1.7-5.7,0.2-8.2c-0.8-1.3-1.1-2.6-1.1-3.9c0-4.2,3.4-7.7,7.7-7.7c4.2,0,7.7,3.4,7.7,7.7c0,1.3-0.4,2.7-1.1,3.9
	c-1.5,2.5-1.4,5.7,0.2,8.2c1.7,2.5,4.6,3.7,7.5,3.3c4.4-0.7,8.7,2.9,8.7,7.5c0,4.2-3.4,7.7-7.6,7.7h-7.7v38.3h38.3v-7.7
	c0-4.2,3.4-7.6,7.7-7.6c4.2,0,7.6,3.4,7.6,7.6c0,0.3-0.1,0.6-0.1,1.2c-0.4,2.9,0.9,5.8,3.4,7.5c2.5,1.6,5.6,1.7,8.2,0.2
	c5.2-3.1,11.6,0.9,11.6,6.5C1403.3,488.8,1396.9,492.9,1391.8,489.7L1391.8,489.7z"/>
</svg>
