<?xml version="1.0" encoding="utf-8"?>
<!-- Generator: Adobe Illustrator 19.0.0, SVG Export Plug-In . SVG Version: 6.00 Build 0)  -->
<svg version="1.1" id="Capa_1" xmlns="http://www.w3.org/2000/svg" xmlns:xlink="http://www.w3.org/1999/xlink" x="0px" y="0px"
	 viewBox="453.8 186.5 468.7 468.8" style="enable-background:new 453.8 186.5 468.7 468.8;" xml:space="preserve">
<style type="text/css">
	.st0{fill:#FFA64D;}
	.st1{fill:#FFFFFF;}
	.st2{fill:none;stroke:#FFFFFF;stroke-width:17;stroke-miterlimit:10;}
</style>
<g>
	<path class="st0" d="M874.7,456.3l-16.9-55c-2-6.3-7.8-10.7-14.4-10.7h-34.2l-90.7-90.7v-34.2c0-6.6-4.3-12.5-10.7-14.4l-55-16.9
		c-6.4-2-12.9-3.6-19.5-5l2.7,5.8l19.9,39.9c2.7,5.4,7.4,9.5,13.1,11.4l11.6,3.9V324c0,6.1,2.4,11.8,6.6,16l81.8,81.8
		c4.3,4.3,10,6.6,16,6.6h33.6l3.9,11.6c1.9,5.7,6,10.4,11.4,13.1l39.8,19.9l5.6,1.6C878.1,468.4,876.5,462.3,874.7,456.3
		L874.7,456.3z"/>
	<path class="st1" d="M892.3,580.4V523c0-23.4-3.5-46.6-10.4-68.9L865,399c-2.9-9.6-11.7-16-21.7-16h-31.1l-37.8-37.8l55.1-55.1
		l-10.7-10.7l-55.1,55.1L726,296.8v-31.1c0-10-6.4-18.7-16-21.7l-55-16.9c-22.4-6.9-45.5-10.4-68.9-10.4h-57.4
		c-3.5-17.2-18.8-30.2-37-30.2c-20.8,0-37.8,17-37.8,37.8s17,37.8,37.8,37.8c18.2,0,33.5-13,37-30.2h57.4c21.9,0,43.6,3.3,64.5,9.7
		l55,16.9c3.2,1,5.3,3.9,5.3,7.2V303l42.2,42.2l-4.4,4.4l-2.2-2.2l-10.7,10.7l2.2,2.2L529.4,568.9c-4.6-2.8-9.9-4.4-15.6-4.4
		c-6.1,0-12,1.8-17.1,5.2l-32.8,21.9c-6.3,4.2-10.1,11.3-10.1,18.9v22.1c0,12.5,10.2,22.7,22.7,22.7h22.1c7.6,0,14.6-3.8,18.9-10.1
		l21.9-32.8c3.4-5.1,5.2-11,5.2-17.1c0-5.7-1.7-11-4.4-15.7l208.5-208.5l2.2,2.2l10.7-10.7l-2.2-2.2l4.4-4.4l42.2,42.2h37.3
		c3.3,0,6.2,2.1,7.2,5.3l16.9,55c6.4,20.9,9.7,42.6,9.7,64.5v57.4c-17.2,3.5-30.2,18.8-30.2,37c0,20.8,17,37.8,37.8,37.8
		s37.8-17,37.8-37.8C922.5,599.1,909.5,583.9,892.3,580.4L892.3,580.4z M499.2,245.6v-6.2h-15.1v6.2c-6.4-2.3-11.4-7.3-13.7-13.7
		h6.2v-15.1h-6.2c2.3-6.4,7.3-11.4,13.7-13.7v6.2h15.1V203c6.4,2.3,11.4,7.3,13.7,13.7h-6.2v15.1h6.2
		C510.6,238.3,505.6,243.3,499.2,245.6L499.2,245.6z M529.4,595.2c0,3.1-0.9,6.1-2.6,8.7L505,636.7c-1.4,2.1-3.8,3.4-6.3,3.4h-22.2
		c-4.2,0-7.6-3.4-7.6-7.6v-22.1c0-2.5,1.3-4.9,3.4-6.3l32.8-21.9c2.6-1.7,5.6-2.6,8.7-2.6c1.5,0,2.9,0.3,4.3,0.7L501.4,597
		l10.7,10.7l16.7-16.7C529.2,592.3,529.4,593.7,529.4,595.2L529.4,595.2z M892.3,638.7v-6.2h-15.1v6.2c-6.4-2.3-11.4-7.3-13.7-13.7
		h6.2v-15.1h-6.2c2.3-6.4,7.3-11.4,13.7-13.7v6.2h15.1v-6.2c6.4,2.3,11.4,7.3,13.7,13.7h-6.2V625h6.2
		C903.7,631.3,898.7,636.4,892.3,638.7L892.3,638.7z"/>
	<path class="st1" d="M758.4,380.8l10.7-10.7l15.1,15.1L773.5,396L758.4,380.8z"/>
	<path class="st1" d="M713.1,335.5l10.7-10.7l15.1,15.1l-10.7,10.7L713.1,335.5z"/>
	<path class="st1" d="M478.7,619.6l15.1-15.1l10.7,10.7l-15.1,15.1L478.7,619.6z"/>
	<path class="st0" d="M858.8,292.3h-42.1v-42.1l38.6-23.2c3-1.8,6.5-2.8,10-2.8c10.7,0,19.4,8.7,19.4,19.4c0,3.5-1,7-2.8,10
		L858.8,292.3z"/>
</g>
<line class="st2" x1="504.5" y1="245.6" x2="858.8" y2="604.5"/>
</svg>
