<?xml version="1.0" encoding="utf-8"?>
<!-- Generator: Adobe Illustrator 19.0.0, SVG Export Plug-In . SVG Version: 6.00 Build 0)  -->
<svg version="1.1" id="Layer_1" xmlns="http://www.w3.org/2000/svg" xmlns:xlink="http://www.w3.org/1999/xlink" x="0px" y="0px"
	 viewBox="-415.4 263.1 48 39.8" style="enable-background:new -415.4 263.1 48 39.8;" xml:space="preserve">
<style type="text/css">
	.st0{clip-path:url(#SVGID_2_);fill:#FFFFFF;}
	.st1{fill:#FFFFFF;}
	.st2{fill:#FBAB18;}
</style>
<g>
	<g>
		<g>
			<defs>
				<rect id="SVGID_1_" x="-415.4" y="263.1" width="48" height="39.8"/>
			</defs>
			<clipPath id="SVGID_2_">
				<use xlink:href="#SVGID_1_"  style="overflow:visible;"/>
			</clipPath>
			<path class="st0" d="M-368.4,273.4c0.3-1.4,0-2.7-0.8-3.8c-0.1-0.1-0.2-0.8,0.3-3.3c0.2-0.8-0.1-1.7-0.7-2.3
				c-0.7-0.7-1.6-0.9-2.5-0.6c-0.9,0.3-1.5,1-1.7,1.9c-0.2,1.2-0.2,2.6-0.1,3.8c-0.1,0-0.1-0.1-0.2-0.1c-0.7-0.3-1.6-0.3-2.3,0.2
				s-1.1,1.2-1.1,2.1c0,0.9,0.4,1.6,1.2,2.1c0.4,0.2,0.9,0.7,1.5,1.2c-0.9,0.8-2.1,1.7-3.4,2.5v-6.3c0-0.4-0.3-0.7-0.7-0.8
				c-5.9-0.8-10-2.9-12.4-4.5c-0.3-0.2-0.6-0.2-0.9,0c-2.4,1.6-6.5,3.8-12.5,4.5c-0.4,0.1-0.7,0.4-0.7,0.8v6.3
				c-1.4-0.8-2.6-1.7-3.5-2.5c0.6-0.5,1.1-0.9,1.5-1.2c0.8-0.5,1.2-1.2,1.2-2.1c0-0.8-0.4-1.6-1.1-2.1c-0.7-0.4-1.5-0.5-2.3-0.2
				c-0.1,0-0.1,0.1-0.2,0.1c0.1-1.2,0.1-2.6-0.1-3.8c-0.2-0.9-0.8-1.6-1.7-1.9c-0.9-0.3-1.9,0-2.5,0.6s-0.9,1.5-0.7,2.3
				c0.5,2.4,0.3,3.1,0.3,3.3c-0.8,1.1-1.1,2.5-0.8,3.8c0.3,1.5,1.3,3.1,3,4.6h-0.4c-1.3,0-2.3,1.1-2.3,2.4c0,1.3,1.1,2.4,2.4,2.4
				h7.3c0.3,6.4,3.4,12.4,8.2,16.2c1.6,1.3,3.3,2.3,5.1,3c0.1,0,0.2,0.1,0.3,0.1c0.1,0,0.2,0,0.3-0.1c1.8-0.7,3.5-1.7,5.1-3
				c4.8-3.8,7.8-9.8,8.2-16.2h7.1c1.3,0,2.4-1.1,2.4-2.4c0-1.3-1.1-2.4-2.4-2.4h-0.4C-369.7,276.4-368.7,274.9-368.4,273.4
				L-368.4,273.4z M-413.4,280.4c0-0.4,0.4-0.8,0.8-0.8h2.6c0.3,0,0.7-0.2,0.8-0.5c0.1-0.3,0-0.7-0.3-0.9c-2.4-1.8-3.8-3.5-4.1-5.1
				c-0.2-1,0-1.8,0.5-2.6c0,0,0,0,0-0.1c0.3-0.5,0.5-1.5-0.1-4.4c-0.1-0.3,0-0.6,0.2-0.8c0.2-0.2,0.6-0.3,0.9-0.2
				c0.1,0,0.5,0.2,0.6,0.7c0.3,1.9,0.1,4.1-0.3,4.9c-0.2,0.3-0.1,0.7,0.2,1c0.3,0.2,0.7,0.2,1,0c0.5-0.4,1-0.7,1.6-1
				c0.3-0.2,0.6,0,0.7,0.1c0.2,0.2,0.4,0.4,0.4,0.8c0,0.3-0.2,0.6-0.4,0.7c-0.9,0.5-1.8,1.5-2.3,2c-0.3,0.3-0.3,0.8,0,1.1
				c1.2,1.3,3.1,2.7,5.4,3.9c0.6,0.3,1.2,0.5,1.8,0.6c0.4,0.1,0.8,0.3,1.2,0.5c0.3,0.1,0.6,0.1,0.8,0c0.3-0.2,0.4-0.5,0.4-0.8
				c-0.1-0.8-0.2-1.4-0.2-1.9c-0.1-0.5-0.1-0.9-0.1-1.1v-2.4c0.4,0.1,0.7,0.3,1,0.6c1.2,1.4,1.2,4.6,0.8,7.3c0,0.2,0,0.5,0.2,0.6
				c1.2,1.4,2.1,3,2.6,3.9l-1.4,0.7c-1.1-2.1-3.3-5.4-5.5-5.9c-0.2,0-0.6-0.1-0.6-0.1h-8.1C-413.1,281.2-413.4,280.8-413.4,280.4
				L-413.4,280.4z M-387.4,297.7c-1.4,1.1-2.9,2-4.4,2.6c-1.5-0.6-3-1.5-4.4-2.6c-4.4-3.4-7.1-8.9-7.5-14.7c1.4,0.8,3.3,3.3,4.3,5.6
				c0.1,0.3,0.4,0.5,0.7,0.5c0.1,0,0.2,0,0.3-0.1l2.9-1.4c0.4-0.2,0.6-0.7,0.4-1.1c-0.2-0.4-1.3-2.6-2.9-4.7c0.3-2,0.5-6.1-1.2-8.2
				c-0.7-0.8-1.8-1.3-3-1.3c-0.4,0-0.8,0.4-0.8,0.8v3.2c0,0.4,0.1,0.8,0.1,1.4c0,0.2,0,0.3,0.1,0.5c-0.1,0-0.2,0-0.3-0.1
				c-0.2-0.1-0.5-0.1-0.7-0.2v-6.5c5.5-0.8,9.5-2.8,12-4.4c2.5,1.6,6.5,3.6,12,4.4v6.4c-0.3,0.1-0.5,0.2-0.8,0.2
				c-0.1,0-0.2,0-0.3,0.1c0-0.2,0-0.3,0.1-0.5c0.1-0.6,0.1-1,0.1-1.4V273c0-0.4-0.4-0.8-0.8-0.8c-1.1,0-2.3,0.5-3,1.3
				c-1.7,2-1.5,6.2-1.2,8.2c-1.7,2.1-2.7,4.3-2.9,4.7c-0.1,0.2-0.1,0.4,0,0.6c0.1,0.2,0.2,0.4,0.4,0.5l2.9,1.4
				c0.1,0.1,0.2,0.1,0.3,0.1c0.3,0,0.6-0.2,0.7-0.5c1-2.2,2.9-4.8,4.3-5.6C-380.3,288.9-383,294.3-387.4,297.7L-387.4,297.7z
				 M-374.4,279c0.1,0.3,0.4,0.5,0.8,0.5h2.6c0.4,0,0.8,0.4,0.8,0.8s-0.4,0.8-0.8,0.8h-8.2c0,0-0.4,0-0.6,0.1
				c-2.2,0.6-4.4,3.8-5.5,5.9l-1.5-0.7c0.5-0.9,1.4-2.5,2.6-3.9c0.1-0.2,0.2-0.4,0.2-0.6c-0.4-2.6-0.4-5.9,0.8-7.3
				c0.2-0.3,0.6-0.5,1-0.6v2.3c0,0.2-0.1,0.6-0.1,1.1c-0.1,0.5-0.2,1.1-0.2,1.9c0,0.3,0.1,0.6,0.4,0.8c0.2,0.2,0.6,0.2,0.8,0
				c0.4-0.2,0.8-0.4,1.2-0.5c0.6-0.1,1.2-0.3,1.8-0.6c2.2-1.3,4.2-2.7,5.4-3.9c0.3-0.3,0.3-0.8,0-1.1c-0.5-0.5-1.5-1.4-2.3-2
				c-0.3-0.2-0.4-0.4-0.4-0.8c0-0.3,0.1-0.6,0.4-0.7c0.1-0.1,0.4-0.2,0.7-0.1c0.6,0.2,1.1,0.6,1.6,0.9c0.3,0.2,0.7,0.2,1,0
				c0.3-0.2,0.4-0.6,0.2-1c-0.4-0.8-0.6-3-0.3-4.9c0.1-0.5,0.4-0.6,0.6-0.7c0.3-0.1,0.7,0,0.9,0.2c0.2,0.2,0.3,0.5,0.2,0.8
				c-0.6,2.9-0.4,3.9-0.1,4.4v0.1c0.6,0.8,0.7,1.7,0.5,2.6c-0.3,1.6-1.7,3.3-4.1,5.1C-374.4,278.4-374.5,278.7-374.4,279L-374.4,279
				z"/>
		</g>
	</g>
	<path class="st1" d="M-386.5,273.2c0.4,0.1,0.9-0.1,1-0.5s-0.1-0.9-0.5-1c-2-0.7-3.8-1.4-5.4-2.4c-0.2-0.1-0.5-0.1-0.8,0
		c-1.6,0.9-3.5,1.7-5.5,2.4c-0.4,0.1-0.6,0.6-0.5,1c0.1,0.3,0.4,0.6,0.8,0.6c0.1,0,0.2,0,0.3,0c1.9-0.6,3.8-1.4,5.4-2.3
		C-390.2,271.8-388.4,272.6-386.5,273.2L-386.5,273.2z"/>
	<path class="st1" d="M-384.2,290.1c-0.4-0.2-0.9-0.1-1.1,0.3c-1.1,1.9-2.4,3.5-4.1,4.8c-0.8,0.6-1.6,1.2-2.4,1.6
		c-0.8-0.4-1.6-1-2.4-1.6c-1.6-1.3-3-2.9-4.1-4.8c-0.2-0.4-0.7-0.5-1.1-0.3s-0.5,0.7-0.3,1.1c1.2,2.1,2.7,3.9,4.5,5.3
		c1,0.8,2,1.4,3.1,2c0.1,0.1,0.2,0.1,0.4,0.1c0.1,0,0.2,0,0.4-0.1c1.1-0.5,2.1-1.2,3.1-2c1.8-1.4,3.3-3.2,4.5-5.3
		C-383.7,290.8-383.8,290.3-384.2,290.1L-384.2,290.1z"/>
</g>
<path class="st2" d="M-413.4,280.4c0-0.4,0.4-0.8,0.8-0.8h2.6c0.3,0,0.7-0.2,0.8-0.5c0.1-0.3,0-0.7-0.3-0.9
	c-2.4-1.8-3.8-3.5-4.1-5.1c-0.2-1,0-1.8,0.5-2.6c0,0,0,0,0-0.1c0.3-0.5,0.5-1.5-0.1-4.4c-0.1-0.3,0-0.6,0.2-0.8
	c0.2-0.2,0.6-0.3,0.9-0.2c0.1,0,0.5,0.2,0.6,0.7c0.3,1.9,0.1,4.1-0.3,4.9c-0.2,0.3-0.1,0.7,0.2,1c0.3,0.2,0.7,0.2,1,0
	c0.5-0.4,1-0.7,1.6-1c0.3-0.2,0.6,0,0.7,0.1c0.2,0.2,0.4,0.4,0.4,0.8c0,0.3-0.2,0.6-0.4,0.7c-0.9,0.5-1.8,1.5-2.3,2
	c-0.3,0.3-0.3,0.8,0,1.1c1.2,1.3,3.1,2.7,5.4,3.9c0.6,0.3,1.2,0.5,1.8,0.6c0.4,0.1,0.8,0.3,1.2,0.5c0.3,0.1,0.6,0.1,0.8,0
	c0.3-0.2,0.4-0.5,0.4-0.8c-0.1-0.8-0.2-1.4-0.2-1.9c-0.1-0.5-0.1-0.9-0.1-1.1v-2.4c0.4,0.1,0.7,0.3,1,0.6c1.2,1.4,1.2,4.6,0.8,7.3
	c0,0.2,0,0.5,0.2,0.6c1.2,1.4,2.1,3,2.6,3.9l-1.4,0.7c-1.1-2.1-3.3-5.4-5.5-5.9c-0.2,0-0.6-0.1-0.6-0.1h-8.1
	C-413.1,281.2-413.4,280.8-413.4,280.4L-413.4,280.4z"/>
<path class="st2" d="M-374.4,279c0.1,0.3,0.4,0.5,0.8,0.5h2.6c0.4,0,0.8,0.4,0.8,0.8s-0.4,0.8-0.8,0.8h-8.2c0,0-0.4,0-0.6,0.1
	c-2.2,0.6-4.4,3.8-5.5,5.9l-1.5-0.7c0.5-0.9,1.4-2.5,2.6-3.9c0.1-0.2,0.2-0.4,0.2-0.6c-0.4-2.6-0.4-5.9,0.8-7.3
	c0.2-0.3,0.6-0.5,1-0.6v2.3c0,0.2-0.1,0.6-0.1,1.1c-0.1,0.5-0.2,1.1-0.2,1.9c0,0.3,0.1,0.6,0.4,0.8c0.2,0.2,0.6,0.2,0.8,0
	c0.4-0.2,0.8-0.4,1.2-0.5c0.6-0.1,1.2-0.3,1.8-0.6c2.2-1.3,4.2-2.7,5.4-3.9c0.3-0.3,0.3-0.8,0-1.1c-0.5-0.5-1.5-1.4-2.3-2
	c-0.3-0.2-0.4-0.4-0.4-0.8c0-0.3,0.1-0.6,0.4-0.7c0.1-0.1,0.4-0.2,0.7-0.1c0.6,0.2,1.1,0.6,1.6,0.9c0.3,0.2,0.7,0.2,1,0
	c0.3-0.2,0.4-0.6,0.2-1c-0.4-0.8-0.6-3-0.3-4.9c0.1-0.5,0.4-0.6,0.6-0.7c0.3-0.1,0.7,0,0.9,0.2c0.2,0.2,0.3,0.5,0.2,0.8
	c-0.6,2.9-0.4,3.9-0.1,4.4v0.1c0.6,0.8,0.7,1.7,0.5,2.6c-0.3,1.6-1.7,3.3-4.1,5.1C-374.4,278.4-374.5,278.7-374.4,279L-374.4,279z"
	/>
</svg>
